<?xml version="1.0" encoding="UTF-8" standalone="no"?>
<svg
   width="1026.163"
   height="652.19"
   viewBox="0 0 1026.163 652.19"
   role="img"
   artist="Katerina Limpitsouni"
   source="https://undraw.co/"
   version="1.1"
   id="svg1"
   sodipodi:docname="proof-tree.svg"
   inkscape:version="1.4.2 (ebf0e940d0, 2025-05-08)"
   inkscape:export-filename="proof-tree.png"
   inkscape:export-xdpi="96"
   inkscape:export-ydpi="96"
   xmlns:inkscape="http://www.inkscape.org/namespaces/inkscape"
   xmlns:sodipodi="http://sodipodi.sourceforge.net/DTD/sodipodi-0.dtd"
   xmlns="http://www.w3.org/2000/svg"
   xmlns:svg="http://www.w3.org/2000/svg">
  <defs
     id="defs1" />
  <sodipodi:namedview
     id="namedview1"
     pagecolor="#ffffff"
     bordercolor="#999999"
     borderopacity="1"
     inkscape:showpageshadow="2"
     inkscape:pageopacity="0"
     inkscape:pagecheckerboard="0"
     inkscape:deskcolor="#d1d1d1"
     inkscape:zoom="0.90081112"
     inkscape:cx="449.59481"
     inkscape:cy="432.38809"
     inkscape:window-width="1920"
     inkscape:window-height="1124"
     inkscape:window-x="0"
     inkscape:window-y="0"
     inkscape:window-maximized="1"
     inkscape:current-layer="svg1" />
  <path
     id="Path_411-4746"
     data-name="Path 411"
     d="m 7.964,136.614 -5.241,4.26 c 1.773,-1.491 3.616,-2.889 5.509,-4.212 z"
     fill="#f2f2f2" />
  <g
     id="g1"
     transform="matrix(1.2270047,0,0,1.2270047,-118.24065,-141.7589)">
    <path
       id="Path_435-4748"
       data-name="Path 435"
       d="m 447.374,555.168 -1,1.2 0.544,0.182 z"
       fill="#090814" />
    <g
       id="Group_23"
       data-name="Group 23"
       transform="translate(211.82,104.48)">
      <path
         id="Path_345-4755"
         data-name="Path 345"
         d="m 565.922,135.23 a 12.841,12.841 0 0 1 0.843,2.7 c -0.41,-1.417 -0.733,-2.377 -0.843,-2.7 z"
         transform="translate(-277.277,-118.191)"
         fill="#3f3d56" />
      <path
         id="Path_346-4756"
         data-name="Path 346"
         d="m 583.265,196.37 a 21.468,21.468 0 0 1 -1.093,4.664 z"
         transform="translate(-281.608,-134.492)"
         fill="#3f3d56" />
      <path
         id="Path_347-4757"
         data-name="Path 347"
         d="m 607.908,326.648 c -28.844,15.034 -66.577,28.015 -77.878,31.778 8.617,-2.244 33.7,-5.266 72.561,18.98 48.829,30.458 101.039,10.15 101.039,10.15 0,0 -11.6,22.244 -36.259,23.688 -24.659,1.444 -88.953,-39.156 -110.7,-27.553 -21.747,11.603 -31.91,-2.9 -40.615,26.109 -8.705,29.009 -24.656,108.283 -6.283,152.763 l 18.364,44.473 H 423.718 c 0,0 37.711,-100.555 16.919,-162.43 C 429,409.953 412.922,363.9 418.4,366.287 c 0,0 -25.141,-24.656 -33.354,-24.656 -8.213,0 -46.9,-3.865 -59.463,-16.919 0,0 -17.887,-12.57 -49.8,18.371 -31.913,30.941 -24.172,30.942 -52.694,28.521 -28.074,-2.384 -50.068,-16 -50.75,-16.428 0.814,0.33 33.6,13.436 53.647,6.762 20.307,-6.769 37.711,-32.394 55.6,-41.092 17.889,-8.698 28.521,-20.308 52.694,-7.737 l -15.929,-37.557 -4.364,-10.289 -0.007,-0.015 c 0,0 -5.324,-70.581 -15.474,-75.414 -10.15,-4.833 -3.865,-17.4 -22.72,-19.823 0,0 23.2,-2.9 27.553,13.054 4.353,15.954 34.33,102.007 34.33,102.007 0,0 18.364,36.735 38.671,28.037 20.307,-8.698 -7.737,-57.527 -7.737,-57.527 L 333.8,239.624 c 0,0 26.109,-0.968 42.06,14.022 15.951,14.99 16.919,63.328 16.919,63.328 0,0 40.124,5.8 49.8,27.561 0,0 32.87,-19.823 31.426,9.182 0,0 29.005,-27.553 27.069,-36.743 -1.936,-9.19 -4.349,-30.942 -22.72,-43.989 -18.371,-13.047 -30.458,-33.846 -17.4,-63.819 7.341,-16.861 10.553,-25.918 11.962,-30.619 l -7.623,32.553 c 0,0 -4.833,33.357 8.707,44.959 0.037,0.029 0.066,0.059 0.1,0.088 13.516,11.617 31.316,32.79 31.316,32.79 l -0.051,-0.931 12.135,32.841 c 0,0 71.552,-2.421 87.5,-33.847 15.948,-31.426 29.013,-32.87 29.013,-32.87 l -9.186,27.07 -10.15,23.2 c 0,0 41.576,0.968 63.328,25.625 21.752,24.657 75.9,31.91 75.9,31.91 l -30.45,8.214 c 0,0 -29.013,-9.666 -56.566,-27.553 -27.553,-17.887 -24.659,-33.836 -58.981,-15.948 z"
         transform="translate(-172.342,-111.998)"
         fill="#3f3d56" />
      <path
         id="Path_348-4758"
         data-name="Path 348"
         d="m 751.2,314.74 c -3.058,13.538 -6.659,26.615 -11.719,36.581 -15.951,31.426 -87.5,33.846 -87.5,33.846 0,0 0.337,-4.151 0.851,-10.7 18.166,-1.5 67.823,-7.884 80.782,-33.413 1.188,-2.332 2.288,-4.84 3.33,-7.481 z"
         transform="translate(-300.221,-166.051)"
         opacity="0.1" />
      <path
         id="Path_350-4759"
         data-name="Path 350"
         d="m 649.021,243.61 c -0.106,11.903 10.213,-11.099 0,0 z"
         transform="translate(-298.991,-117.445)"
         opacity="0.1" />
      <path
         id="Path_351-4760"
         data-name="Path 351"
         d="m 592.564,419.379 v 10.636 c 0,0 29.006,-27.556 27.073,-36.741 -1.479,-7.025 -3.249,-21.4 -12.213,-33.611 4.04,9.23 5.27,18.233 6.346,23.344 1.387,6.587 -13.136,22.619 -21.464,31.164 a 22.034,22.034 0 0 1 0.258,5.208 z"
         transform="translate(-284.31,-178.028)"
         opacity="0.1" />
      <path
         id="Path_353-4762"
         data-name="Path 353"
         d="m 735.768,467.352 c -15.9,-9.92 -29.5,-15.273 -40.6,-17.985 -11.648,4.384 -21.235,7.653 -26.058,9.258 8.651,-2.24 33.715,-5.214 72.526,18.994 30.451,18.994 62.215,18.245 81.814,14.991 a 50.654,50.654 0 0 0 13.357,-15.11 c 0,0 -52.207,20.308 -101.039,-10.148 z"
         transform="translate(-304.787,-201.945)"
         opacity="0.1" />
      <path
         id="Path_354-4763"
         data-name="Path 354"
         d="m 568.45,283.969 c -3.9,-9.552 -4.541,-20.918 -0.062,-34.237 a 104.5,104.5 0 0 1 0.834,-14.44 l 7.612,-32.563 c -1.4,4.7 -4.615,13.755 -11.963,30.63 -9.303,21.362 -5.831,38.055 3.579,50.61 z"
         transform="translate(-275.536,-136.187)"
         opacity="0.1" />
      <path
         id="Path_355-4764"
         data-name="Path 355"
         d="m 841.944,400.313 c -15.087,-17.1 -39.7,-22.8 -53.377,-24.694 l -4.086,9.339 c 0,0 41.575,0.967 63.33,25.622 12.064,13.672 34.086,21.991 51.314,26.691 l 18.719,-5.051 c 0,0 -54.144,-7.252 -75.9,-31.907 z"
         transform="translate(-335.547,-182.282)"
         opacity="0.1" />
      <path
         id="Path_356-4765"
         data-name="Path 356"
         d="m 445.3,379.177 c 20.3,-8.7 -7.735,-57.529 -7.735,-57.529 l -0.767,-0.352 c 6.99,14.749 17.128,41.4 2.635,47.613 -13.562,5.812 -26.26,-8.648 -33.2,-18.893 l 0.39,1.122 c 0,0 18.377,36.74 38.677,28.039 z"
         transform="translate(-234.702,-167.799)"
         opacity="0.1" />
      <path
         id="Path_358-4766"
         data-name="Path 358"
         d="m 583.172,201.034 a 21.451,21.451 0 0 0 1.09,-4.661 z"
         transform="translate(-281.874,-134.493)"
         opacity="0.1" />
      <path
         id="Path_359-4767"
         data-name="Path 359"
         d="m 232.561,438.711 c 0.1,-0.031 0.2,-0.06 0.293,-0.092 20.3,-6.768 37.708,-32.39 55.6,-41.092 17.892,-8.702 28.523,-20.3 52.695,-7.735 0,0 -4.229,-17.31 -12.424,-28.682 a 112.786,112.786 0 0 1 6.556,18.414 c -24.172,-12.569 -34.807,-0.967 -52.695,7.735 -17.888,8.702 -35.291,34.324 -55.6,41.092 -20.309,6.768 -53.662,-6.768 -53.662,-6.768 0,0 22.238,14.02 50.761,16.437 3.265,0.28 6.049,0.52 8.476,0.691 z"
         transform="translate(-172.605,-178.414)"
         opacity="0.1" />
      <path
         id="Path_360-4768"
         data-name="Path 360"
         d="m 368.767,307.5 c 0,0 -0.792,0.015 -2.229,0.037 l -4.364,-10.289 c 0.477,-0.007 0.726,-0.015 0.726,-0.015 0,0 -3.359,-44.517 -9.827,-65.264 0.081,0.037 0.147,0.081 0.22,0.117 10.149,4.834 15.474,75.414 15.474,75.414 z"
         transform="translate(-220.527,-143.983)"
         opacity="0.1" />
      <path
         id="Path_361-4769"
         data-name="Path 361"
         d="m 525.5,715.66 c 8.858,-27.154 30.16,-102.242 13.389,-152.168 -7.243,-21.561 -13.957,-35.309 -19.632,-44.08 a 249.23,249.23 0 0 1 13.765,33.813 C 553.811,615.1 516.1,715.66 516.1,715.66 Z"
         transform="translate(-263.993,-220.619)"
         opacity="0.1" />
      <path
         id="Path_363-4770"
         data-name="Path 363"
         d="m 338.4,211.727 a 12.649,12.649 0 0 0 1.988,2.542 14.267,14.267 0 0 0 -1.988,-2.542 z"
         transform="translate(-216.614,-138.586)"
         opacity="0.1" />
      <path
         id="Path_364-4771"
         data-name="Path 364"
         d="m 441.42,310.3 a 23.561,23.561 0 0 1 2.1,2.26 c -2.118,-5.091 -4.733,-9.493 -7.963,-12.527 -15.953,-14.987 -42.059,-14.02 -42.059,-14.02 l 32.739,15.005 a 46.753,46.753 0 0 1 15.183,9.282 z"
         transform="translate(-231.305,-158.39)"
         opacity="0.1" />
      <path
         id="Path_366-4772"
         data-name="Path 366"
         d="m 567.737,137.85 a 13.836,13.836 0 0 0 -0.878,-2.782 c 0,0 0.372,1.044 0.878,2.782 z"
         transform="translate(-277.525,-118.148)"
         opacity="0.1" />
      <path
         id="Path_367-4773"
         data-name="Path 367"
         d="m 329.674,201.4 c 4.261,0.522 9.162,1.829 12.9,4.861 -0.244,-0.825 -0.457,-1.564 -0.626,-2.185 -4.351,-15.953 -27.556,-13.053 -27.556,-13.053 10.486,1.346 13.195,5.831 15.282,10.377 z"
         transform="translate(-210.214,-133.012)"
         opacity="0.1" />
      <path
         id="Path_368-4774"
         data-name="Path 368"
         d="m 954.864,747.711 c -7.21,11.057 -5.234,25.12 -5.234,25.12 0,0 13.665,-3.864 20.875,-14.921 7.21,-11.057 5.234,-25.119 5.234,-25.119 0,0 -13.665,3.863 -20.875,14.92 z"
         transform="translate(-379.512,-277.509)"
         fill="#3f3d56" />
      <path
         id="Path_369-4775"
         data-name="Path 369"
         d="m 957.45,746.973 c -0.57,13.187 -10.359,23.475 -10.359,23.475 0,0 -8.865,-11.094 -8.3,-24.281 0.565,-13.187 10.359,-23.475 10.359,-23.475 0,0 8.87,11.094 8.3,24.281 z"
         transform="translate(-376.682,-274.817)"
         fill="#60c3aa" />
      <path
         id="Path_386-4792"
         data-name="Path 386"
         d="m 658.864,747.711 c -7.21,11.057 -5.234,25.12 -5.234,25.12 0,0 13.665,-3.864 20.875,-14.921 7.21,-11.057 5.234,-25.119 5.234,-25.119 0,0 -13.665,3.863 -20.875,14.92 z"
         transform="translate(-300.594,-277.509)"
         fill="#3f3d56" />
      <path
         id="Path_387-4793"
         data-name="Path 387"
         d="m 661.45,746.973 c -0.57,13.187 -10.359,23.475 -10.359,23.475 0,0 -8.865,-11.094 -8.3,-24.281 0.565,-13.187 10.359,-23.475 10.359,-23.475 0,0 8.87,11.094 8.3,24.281 z"
         transform="translate(-297.764,-274.817)"
         fill="#60c3aa" />
      <path
         id="Path_388-4794"
         data-name="Path 388"
         d="m 498.689,749.564 c 3.447,12.742 15.253,20.633 15.253,20.633 0,0 6.218,-12.767 2.771,-25.509 -3.447,-12.742 -15.253,-20.633 -15.253,-20.633 0,0 -6.218,12.768 -2.771,25.509 z"
         transform="translate(-259.073,-275.18)"
         fill="#3f3d56" />
      <path
         id="Path_389-4795"
         data-name="Path 389"
         d="m 497.38,751.475 c 9.458,9.207 10.614,23.361 10.614,23.361 0,0 -14.18,-0.774 -23.638,-9.982 -9.458,-9.208 -10.614,-23.361 -10.614,-23.361 0,0 14.18,0.775 23.638,9.982 z"
         transform="translate(-252.699,-279.83)"
         fill="#60c3aa" />
      <path
         id="Path_390-4796"
         data-name="Path 390"
         d="m 456.433,275.161 c -0.822,13.174 -10.807,23.272 -10.807,23.272 0,0 -8.651,-11.261 -7.826,-24.433 0.825,-13.172 10.8,-23.275 10.8,-23.275 0,0 8.656,11.261 7.833,24.436 z"
         transform="translate(-243.101,-148.984)"
         fill="#60c3aa" />
      <path
         id="Path_392-4797"
         data-name="Path 392"
         d="m 278.152,387.6 c 11.166,7.04 15.238,20.644 15.238,20.644 0,0 -14.031,2.191 -25.2,-4.849 -11.169,-7.04 -15.239,-20.644 -15.239,-20.644 0,0 14.035,-2.188 25.201,4.849 z"
         transform="translate(-193.835,-184.099)"
         fill="#60c3aa" />
      <path
         id="Path_393-4798"
         data-name="Path 393"
         d="m 589.908,193.231 c -3.367,12.763 -15.124,20.728 -15.124,20.728 0,0 -6.3,-12.728 -2.93,-25.491 3.37,-12.763 15.124,-20.728 15.124,-20.728 0,0 6.298,12.728 2.93,25.491 z"
         transform="translate(-278.593,-126.859)"
         fill="#60c3aa" />
      <path
         id="Path_395-4799"
         data-name="Path 395"
         d="m 890.547,398.026 c -7.169,11.083 -20.82,15 -20.82,15 0,0 -2.027,-14.055 5.142,-25.139 7.169,-11.084 20.82,-15 20.82,-15 0,0 2.027,14.056 -5.142,25.139 z"
         transform="translate(-358.204,-181.554)"
         fill="#60c3aa" />
      <path
         id="Path_396-4800"
         data-name="Path 396"
         d="M 866,206"
         transform="translate(-357.28,-137.06)"
         fill="#3f3d56" />
    </g>
    <rect
       id="Rectangle_125-2"
       data-name="Rectangle 125"
       width="558.08398"
       height="2.9030001"
       fill="#3f3d56"
       x="264.61237"
       y="598" />
    <text
       xml:space="preserve"
       style="font-weight:bold;font-size:38.9595px;font-family:'Adwaita Mono';-inkscape-font-specification:'Adwaita Mono, Bold';text-align:start;writing-mode:lr-tb;direction:ltr;text-anchor:start;opacity:0.85;fill:#f16d6e;fill-opacity:1;stroke:none;stroke-width:0.334153;stroke-miterlimit:0;paint-order:markers stroke fill"
       x="245.55275"
       y="295.57736"
       id="text1"><tspan
         sodipodi:role="line"
         id="tspan1"
         x="245.55275"
         y="295.57736"
         style="fill:#f16d6e;fill-opacity:1;stroke:none;stroke-width:0.334153">A⇒A</tspan></text>
    <text
       xml:space="preserve"
       style="font-weight:bold;font-size:38.9595px;font-family:'Adwaita Mono';-inkscape-font-specification:'Adwaita Mono, Bold';text-align:start;writing-mode:lr-tb;direction:ltr;text-anchor:start;opacity:0.85;fill:#f16d6e;fill-opacity:1;stroke:none;stroke-width:0.334153;stroke-miterlimit:0;paint-order:markers stroke fill"
       x="378.83841"
       y="204.28035"
       id="text1-5"><tspan
         sodipodi:role="line"
         id="tspan1-3"
         x="378.83841"
         y="204.28035"
         style="fill:#f16d6e;fill-opacity:1;stroke:none;stroke-width:0.334153">C⇒C</tspan></text>
    <text
       xml:space="preserve"
       style="font-weight:bold;font-size:38.9595px;font-family:'Adwaita Mono';-inkscape-font-specification:'Adwaita Mono, Bold';text-align:start;writing-mode:lr-tb;direction:ltr;text-anchor:start;opacity:0.85;fill:#f16d6e;fill-opacity:1;stroke:none;stroke-width:0.334153;stroke-miterlimit:0;paint-order:markers stroke fill"
       x="482.41425"
       y="147.66611"
       id="text1-5-9"><tspan
         sodipodi:role="line"
         id="tspan1-3-1"
         x="482.41425"
         y="147.66611"
         style="fill:#f16d6e;fill-opacity:1;stroke:none;stroke-width:0.334153">B⇒B</tspan></text>
    <text
       xml:space="preserve"
       style="font-weight:bold;font-size:38.9595px;font-family:'Adwaita Mono';-inkscape-font-specification:'Adwaita Mono, Bold';text-align:start;writing-mode:lr-tb;direction:ltr;text-anchor:start;opacity:0.85;fill:#60c3aa;fill-opacity:1;stroke:none;stroke-width:0.334153;stroke-miterlimit:0;paint-order:markers stroke fill"
       x="300.21634"
       y="638.73425"
       id="text1-5-9-7"><tspan
         sodipodi:role="line"
         id="tspan1-3-1-9"
         x="300.21634"
         y="638.73425"
         style="fill:#60c3aa;fill-opacity:1;stroke:none;stroke-width:0.334153">((A∨B)∧(A⇒C)∧(B⇒C)⇒C</tspan></text>
    <text
       xml:space="preserve"
       style="font-weight:bold;font-size:38.9595px;font-family:'Adwaita Mono';-inkscape-font-specification:'Adwaita Mono, Bold';text-align:start;writing-mode:lr-tb;direction:ltr;text-anchor:start;opacity:0.85;fill:#f16d6e;fill-opacity:1;stroke:none;stroke-width:0.334153;stroke-miterlimit:0;paint-order:markers stroke fill"
       x="708.52643"
       y="299.14218"
       id="text1-5-9-9"><tspan
         sodipodi:role="line"
         id="tspan1-3-1-3"
         x="708.52643"
         y="299.14218"
         style="fill:#f16d6e;fill-opacity:1;stroke:none;stroke-width:0.334153">C⇒C</tspan></text>
  </g>
</svg>
