<?xml version="1.0" encoding="UTF-8" standalone="no"?>
<!-- Created with Inkscape (http://www.inkscape.org/) -->

<svg
   width="300mm"
   height="300mm"
   viewBox="0 0 300 300"
   version="1.1"
   id="svg1"
   xml:space="preserve"
   inkscape:version="1.4.2 (ebf0e940d0, 2025-05-08)"
   sodipodi:docname="logo.svg"
   inkscape:export-filename="logo.png"
   inkscape:export-xdpi="96"
   inkscape:export-ydpi="96"
   xmlns:inkscape="http://www.inkscape.org/namespaces/inkscape"
   xmlns:sodipodi="http://sodipodi.sourceforge.net/DTD/sodipodi-0.dtd"
   xmlns="http://www.w3.org/2000/svg"
   xmlns:svg="http://www.w3.org/2000/svg"><sodipodi:namedview
     id="namedview1"
     pagecolor="#ffffff"
     bordercolor="#999999"
     borderopacity="1"
     inkscape:showpageshadow="2"
     inkscape:pageopacity="0"
     inkscape:pagecheckerboard="0"
     inkscape:deskcolor="#d1d1d1"
     inkscape:document-units="mm"
     showguides="true"
     inkscape:zoom="0.36302259"
     inkscape:cx="220.37196"
     inkscape:cy="673.51181"
     inkscape:window-width="2560"
     inkscape:window-height="1364"
     inkscape:window-x="0"
     inkscape:window-y="0"
     inkscape:window-maximized="1"
     inkscape:current-layer="layer1"><sodipodi:guide
       position="150,68.015868"
       orientation="-1,0"
       id="guide5"
       inkscape:locked="false"
       inkscape:label=""
       inkscape:color="rgb(0,134,229)" /><sodipodi:guide
       position="354.05487,150"
       orientation="0,1"
       id="guide3"
       inkscape:locked="false"
       inkscape:label=""
       inkscape:color="rgb(0,134,229)" /><sodipodi:guide
       position="66.463429,280"
       orientation="0,1"
       id="guide6"
       inkscape:locked="false"
       inkscape:label=""
       inkscape:color="rgb(0,134,229)" /><sodipodi:guide
       position="20,253.01438"
       orientation="-1,0"
       id="guide7"
       inkscape:locked="false"
       inkscape:label=""
       inkscape:color="rgb(0,134,229)" /><sodipodi:guide
       position="100.72291,20"
       orientation="0,1"
       id="guide8"
       inkscape:locked="false"
       inkscape:label=""
       inkscape:color="rgb(0,134,229)" /><sodipodi:guide
       position="280,256.61727"
       orientation="-1,0"
       id="guide9"
       inkscape:locked="false"
       inkscape:label=""
       inkscape:color="rgb(0,134,229)" /></sodipodi:namedview><defs
     id="defs1">
	
	
</defs><rect
     style="opacity:0.97;fill:#dfdfd2;fill-opacity:1;stroke:none;stroke-width:0;stroke-miterlimit:0;stroke-dasharray:none;paint-order:markers stroke fill"
     id="rect5"
     width="300"
     height="300"
     x="0"
     y="0"
     rx="35.712463"
     ry="40.145737" /><g
     inkscape:label="Layer 1"
     inkscape:groupmode="layer"
     id="layer1"><text
       xml:space="preserve"
       style="font-style:normal;font-variant:normal;font-weight:normal;font-stretch:normal;font-size:356.875px;font-family:'Adwaita Sans';-inkscape-font-specification:'Adwaita Sans, @opsz=32,wght=300';font-variant-ligatures:normal;font-variant-caps:normal;font-variant-numeric:normal;font-variant-east-asian:normal;font-variation-settings:'opsz' 32, 'wght' 300;text-align:start;writing-mode:lr-tb;direction:ltr;text-anchor:start;fill:#353533;fill-opacity:1;stroke:#000000;stroke-width:0;stroke-miterlimit:0;paint-order:markers stroke fill"
       x="-263.37952"
       y="-20.235483"
       id="text5"
       transform="scale(-1)"><tspan
         sodipodi:role="line"
         id="tspan5"
         style="font-style:normal;font-variant:normal;font-weight:normal;font-stretch:normal;font-size:356.875px;font-family:'Adwaita Sans';-inkscape-font-specification:'Adwaita Sans, @opsz=32,wght=300';font-variant-ligatures:normal;font-variant-caps:normal;font-variant-numeric:normal;font-variant-east-asian:normal;font-variation-settings:'opsz' 32, 'wght' 300;fill:#353533;fill-opacity:1;stroke-width:0"
         x="-263.37952"
         y="-20.235483">A</tspan></text></g><g
     id="g3"
     transform="matrix(-0.49122994,0,0,0.49122994,319.9773,33.80795)"
     style="opacity:0.97"><path
       style="fill:#60c3ab"
       d="m 328.975,320.884 c -11.733,6.4 -27.733,6.4 -40.533,1.067 -12.8,-4.267 -24.533,-12.8 -35.2,-21.333 -10.667,-8.533 -22.4,-16 -33.067,-24.533 8.533,0 17.067,1.067 24.533,3.2 -11.733,-4.267 -21.333,-12.8 -27.733,-22.4 -4.267,-5.333 -6.4,-11.733 -10.667,-17.067 -7.467,-10.667 -19.2,-18.133 -33.067,-21.333 13.867,-5.333 28.8,-5.333 42.667,0 -9.6,-3.2 -18.133,-6.4 -27.733,-10.667 -5.333,-2.133 -9.6,-4.267 -13.867,-8.533 -4.267,-5.333 -5.333,-11.733 -7.467,-17.067 -4.267,-10.667 -13.867,-19.2 -23.467,-25.6 8.533,1.067 18.133,1.067 26.667,2.133 -4.267,-8.533 -14.933,-9.6 -23.467,-12.8 -16,-6.4 -24.533,-22.4 -32,-38.4 8.533,-1.067 18.133,1.067 25.6,5.333 -10.667,-7.467 -23.467,-14.933 -29.867,-26.667 -3.2,-6.4 -5.333,-12.8 -7.467,-19.2 -4.267,-10.667 -6.4,-19.2 -9.6,-27.733 -1.067,-6.4 -3.2,-11.733 -6.4,-17.067 -5.333,-9.6 -16,-16 -24.533,-21.333 12.8,-2.133 26.667,0 39.467,2.133 12.8,2.133 25.6,4.267 37.333,7.467 30.933,9.6 57.6,33.067 70.4,62.933 3.2,-6.4 3.2,-14.933 0,-21.333 18.133,18.133 37.333,38.4 40.533,62.933 3.2,-6.4 4.267,-14.933 2.133,-22.4 28.8,19.2 48,50.133 53.333,84.267 4.267,-10.667 4.267,-18.133 2.133,-28.8 6.4,13.867 19.2,24.533 27.733,37.333 10.667,16 14.933,37.333 10.667,56.533 4.267,-1.067 8.533,-4.267 10.667,-8.533 9.6,14.933 10.667,35.2 6.4,52.267 -2.133,7.467 -5.333,14.933 -10.667,21.333 -5.333,6.4 -12.8,10.667 -20.267,10.667 z"
       id="path1" /><path
       style="fill:#3a9b81"
       d="m 138.042,44.617 c 0,0 1.067,1.067 3.2,2.133 2.133,1.066 5.333,4.267 9.6,7.467 4.267,3.2 8.533,7.467 13.867,11.733 5.333,4.267 10.667,9.6 17.067,16 6.4,6.4 12.8,12.8 19.2,19.2 6.4,7.467 13.867,14.933 21.333,22.4 7.467,8.533 13.867,17.067 21.333,25.6 6.4,8.533 13.867,18.133 20.267,26.667 6.4,9.6 13.867,18.133 19.2,27.733 6.4,9.6 12.8,18.133 18.133,27.733 5.333,9.6 10.667,18.133 16,26.667 5.333,8.533 9.6,17.067 13.867,24.533 4.267,7.467 8.533,13.867 10.667,20.267 3.2,6.4 6.4,11.733 8.533,16 4.267,8.533 7.467,13.867 7.467,13.867 l -22.4,10.667 c 0,0 -2.133,-5.333 -6.4,-13.867 -2.133,-4.267 -4.267,-9.6 -7.467,-16 -3.2,-6.4 -6.4,-12.8 -9.6,-20.267 -4.267,-7.467 -7.467,-16 -11.733,-24.533 -4.266,-8.533 -9.6,-17.067 -14.933,-26.667 -5.333,-9.6 -10.667,-18.133 -16,-27.733 -5.333,-9.6 -11.733,-19.2 -18.133,-28.8 -6.4,-9.6 -12.8,-18.133 -19.2,-27.733 -6.4,-8.533 -12.8,-18.133 -19.2,-25.6 -6.4,-8.533 -12.8,-16 -19.2,-23.467 -6.4,-7.467 -12.8,-13.867 -18.133,-20.267 -5.333,-6.4 -11.733,-11.733 -16,-16 -5.333,-4.267 -9.6,-8.533 -12.8,-11.733 -3.2,-3.2 -6.4,-5.333 -8.533,-7.467 -2.133,-1.067 -3.2,-2.133 -3.2,-2.133 z"
       id="path2" /><path
       style="fill:#7f3f3e;fill-opacity:1"
       d="m 382.309,329.417 h -80 c -5.333,0 -10.667,4.267 -11.733,9.6 -1.067,7.467 4.267,13.867 11.733,13.867 h 1.067 c 4.267,0 8.533,3.2 8.533,8.533 v 13.867 h 62.933 v -13.867 c 0,-4.267 3.2,-8.533 8.533,-8.533 v 0 c 5.333,0 10.667,-4.267 11.733,-9.6 0,-7.467 -5.333,-13.867 -12.799,-13.867 z"
       id="path3" /><path
       style="fill:#b75656;fill-opacity:1"
       d="m 350.309,369.95 h -17.067 c -48,0 -87.467,37.333 -87.467,83.2 v 24.533 c 0,12.8 11.733,23.467 25.6,23.467 h 141.867 c 13.867,0 25.6,-10.667 25.6,-23.467 V 453.15 c -1.067,-46.933 -39.467,-83.2 -88.533,-83.2 z"
       id="path4" /></g></svg>
