<?xml version="1.0" encoding="UTF-8" standalone="no"?>
<svg
   width="1026.163"
   height="652.19"
   viewBox="0 0 1026.163 652.19"
   role="img"
   artist="Katerina Limpitsouni"
   source="https://undraw.co/"
   version="1.1"
   id="svg1"
   sodipodi:docname="undraw_tree-swing_5010.svg"
   inkscape:version="1.4.2 (ebf0e940d0, 2025-05-08)"
   xmlns:inkscape="http://www.inkscape.org/namespaces/inkscape"
   xmlns:sodipodi="http://sodipodi.sourceforge.net/DTD/sodipodi-0.dtd"
   xmlns="http://www.w3.org/2000/svg"
   xmlns:svg="http://www.w3.org/2000/svg">
  <defs
     id="defs1" />
  <sodipodi:namedview
     id="namedview1"
     pagecolor="#ffffff"
     bordercolor="#999999"
     borderopacity="1"
     inkscape:showpageshadow="2"
     inkscape:pageopacity="0"
     inkscape:pagecheckerboard="0"
     inkscape:deskcolor="#d1d1d1"
     inkscape:zoom="1.2739393"
     inkscape:cx="508.65846"
     inkscape:cy="381.10136"
     inkscape:window-width="2560"
     inkscape:window-height="1364"
     inkscape:window-x="0"
     inkscape:window-y="0"
     inkscape:window-maximized="1"
     inkscape:current-layer="svg1" />
  <path
     id="Path_400-4737"
     data-name="Path 400"
     d="m 648.108,587.586 a 38.667,38.667 0 0 1 -1.675,12.1 c -0.042,0.142 -0.092,0.285 -0.142,0.427 H 621.64 a 22.121,22.121 0 0 1 1.666,-5.024 c 2.051,-4.354 5.4,-8.08 8.708,-11.781 4.555,-5.1 9,-10.157 9.7,-16.788 a 38.084,38.084 0 0 1 4.287,8.85 10.4,10.4 0 0 0 -3.441,2.11 c -0.276,0.26 -0.569,0.636 -0.427,1 0.134,0.3 0.5,0.4 0.829,0.469 0.787,0.151 1.574,0.3 2.361,0.444 0.62,0.126 1.248,0.243 1.876,0.36 a 41.114,41.114 0 0 1 0.9,7.837 z"
     fill="#e6e6e6" />
  <path
     id="Path_401-4738"
     data-name="Path 401"
     d="m 668.814,584.872 c -3.952,2.4 -6.464,6.121 -8.516,10.282 a 10.516,10.516 0 0 0 -4.781,2.512 c -0.285,0.26 -0.578,0.636 -0.427,1 0.126,0.3 0.5,0.4 0.829,0.469 0.779,0.151 1.574,0.3 2.353,0.444 -0.076,0.176 -0.151,0.36 -0.226,0.536 h -26.124 a 36.928,36.928 0 0 1 3.927,-4.488 c 0.31,-0.31 0.628,-0.6 0.955,-0.9 a 39.074,39.074 0 0 1 11.3,-7.134 39.766,39.766 0 0 1 20.71,-2.721 z"
     fill="#e6e6e6" />
  <path
     id="Path_402-4739"
     data-name="Path 402"
     d="m 636.276,600.112 h -23.261 a 37.786,37.786 0 0 1 0.033,-5.593 40,40 0 0 1 16.621,-29.08 c -1.206,4.3 -0.586,8.566 0.67,12.853 -0.176,0.059 -0.352,0.109 -0.511,0.176 a 10.4,10.4 0 0 0 -3.441,2.11 c -0.276,0.26 -0.569,0.636 -0.427,1 0.126,0.3 0.5,0.4 0.829,0.469 0.787,0.151 1.574,0.3 2.353,0.444 0.628,0.126 1.256,0.243 1.884,0.368 0.293,0.05 0.586,0.109 0.879,0.167 0.042,0.1 0.067,0.193 0.109,0.285 a 77.456,77.456 0 0 1 3.835,12.317 28.769,28.769 0 0 1 0.385,3.157 c 0.025,0.44 0.042,0.883 0.042,1.327 z"
     fill="#e6e6e6" />
  <path
     id="Path_403-4740"
     data-name="Path 403"
     d="m 363.251,578.394 a 67.042,67.042 0 0 1 -2.9,20.978 c -0.073,0.247 -0.16,0.494 -0.247,0.74 h -42.742 a 38.362,38.362 0 0 1 2.889,-8.71 c 3.557,-7.549 9.364,-14.009 15.1,-20.426 7.9,-8.841 15.606,-17.61 16.826,-29.107 a 66.033,66.033 0 0 1 7.433,15.345 18.037,18.037 0 0 0 -5.967,3.659 c -0.479,0.45 -0.987,1.1 -0.74,1.728 0.232,0.523 0.871,0.7 1.437,0.813 1.365,0.261 2.729,0.523 4.094,0.769 1.074,0.218 2.163,0.421 3.252,0.624 a 71.276,71.276 0 0 1 1.568,13.588 z"
     fill="#e6e6e6" />
  <path
     id="Path_404-4741"
     data-name="Path 404"
     d="m 399.153,573.694 c -6.852,4.167 -11.207,10.612 -14.764,17.827 a 18.234,18.234 0 0 0 -8.289,4.355 c -0.494,0.45 -1,1.1 -0.74,1.728 0.218,0.523 0.871,0.7 1.437,0.813 1.35,0.261 2.729,0.523 4.079,0.769 -0.131,0.3 -0.261,0.624 -0.392,0.929 h -45.295 a 64.04,64.04 0 0 1 6.809,-7.781 c 0.537,-0.537 1.089,-1.045 1.655,-1.568 a 67.746,67.746 0 0 1 19.6,-12.369 68.945,68.945 0 0 1 35.9,-4.703 z"
     fill="#e6e6e6" />
  <path
     id="Path_405-4742"
     data-name="Path 405"
     d="m 342.738,600.111 h -40.326 a 65.526,65.526 0 0 1 0.058,-9.7 69.348,69.348 0 0 1 28.817,-50.419 c -2.091,7.447 -1.016,14.851 1.161,22.284 -0.3,0.1 -0.61,0.189 -0.885,0.3 a 18.037,18.037 0 0 0 -5.967,3.658 c -0.479,0.45 -0.987,1.1 -0.74,1.728 0.218,0.523 0.871,0.7 1.437,0.813 1.365,0.261 2.729,0.523 4.079,0.769 1.089,0.218 2.178,0.421 3.266,0.639 0.508,0.087 1.016,0.189 1.524,0.29 0.073,0.174 0.116,0.334 0.189,0.494 2.555,7.041 5.342,14.14 6.649,21.355 a 49.856,49.856 0 0 1 0.668,5.473 c 0.044,0.777 0.07,1.547 0.07,2.316 z"
     fill="#e6e6e6" />
  <path
     id="Path_406-4743"
     data-name="Path 406"
     d="M 442.732,116.535 C 431.598,98.121 418.405,78.459 397.743,72.446 c -23.927,-6.963 -48.507,6.87 -69.356,20.52 a 2021.019,2021.019 0 0 0 -179.86,132.515 l 0.063,0.715 134.214,-9.256 c 32.323,-2.229 65.757,-4.766 94.322,-20.057 10.839,-5.8 21.405,-13.553 33.688,-14.093 15.26,-0.671 28.566,9.987 39.023,21.122 61.855,65.869 79.754,166.596 149.149,224.469 A 2202.248,2202.248 0 0 0 442.732,116.535 Z"
     fill="#f2f2f2" />
  <path
     id="Path_407-4744"
     data-name="Path 407"
     d="m 808.294,650.112 h -6.126 Q 722.184,546.197 651.652,435.459 602.395,358.198 558.03,277.946 q -2.613,-4.725 -5.212,-9.465 -18.359,-33.492 -35.859,-67.433 -15.5,-30.051 -30.3,-60.45 c -2.816,-5.792 -5.56,-11.6 -8.289,-17.435 -6.431,-13.7 -12.732,-27.481 -19.511,-41 -6.838,-13.661 -15,-27.888 -26.61,-38.152 a 58.328,58.328 0 0 0 -4.674,-3.775 48.9,48.9 0 0 0 -5.778,-3.644 c -0.2,-0.116 -0.406,-0.218 -0.61,-0.334 a 39.728,39.728 0 0 0 -15.853,-4.573 c -11.541,-0.755 -22.183,4.021 -32.2,9.218 q -25.347,13.218 -49.925,27.96 A 1053.966,1053.966 0 0 0 169.721,181.115 l -0.363,0.319 A 1060.655,1060.655 0 0 0 3.802,365.207 c -1.466,2.091 -4.921,0.087 -3.44,-2 Q 9.072,350.86 18.146,338.789 A 1063.718,1063.718 0 0 1 171.317,174.452 q 9.516,-8.275 19.25,-16.317 A 1066.25,1066.25 0 0 1 290.49,84.764 q 15.94,-10.343 32.243,-20.063 10.8,-6.467 21.747,-12.674 c 9.233,-5.226 18.51,-10.394 27.946,-15.229 9.247,-4.762 19.061,-9.03 29.63,-9.189 a 44.21,44.21 0 0 1 21.834,5.313 c 0.2,0.116 0.421,0.218 0.624,0.348 a 58.176,58.176 0 0 1 11.323,8.275 c 15.345,14.212 25.609,36.511 33.593,53.627 q 6.032,12.957 12.209,25.8 23.322,48.8 48.459,96.729 13.436,25.587 27.38,50.956 c 1.423,2.628 2.874,5.255 4.326,7.868 q 50.39,91.045 107.109,178.418 c 44.902,69.159 89.5,131.09 139.381,195.169 z"
     fill="#e4e4e4" />
  <path
     id="Path_409-4745"
     data-name="Path 409"
     d="m 623.919,351.365 53.576,-19.6 26.6,-9.729 c 8.663,-3.169 17.306,-6.776 26.262,-9.045 a 41.43,41.43 0 0 1 23.77,0.3 54.785,54.785 0 0 1 18.54,11.493 150.454,150.454 0 0 1 15.207,16.24 c 5.792,6.96 11.5,13.993 17.229,21 q 35.482,43.394 70.5,87.164 35.018,43.77 69.567,87.911 34.634,44.249 68.791,88.869 4.185,5.466 8.362,10.938 c 1.539,2.015 5.008,0.028 3.448,-2.015 q -34.41,-45.068 -69.3,-89.767 -34.975,-44.806 -70.433,-89.232 -35.458,-44.426 -71.394,-88.465 -8.953,-10.971 -17.935,-21.919 c -5.051,-6.156 -10.046,-12.379 -15.586,-18.109 -10.17,-10.518 -22.876,-19.813 -38.085,-20.065 -8.942,-0.148 -17.6,2.689 -25.9,5.7 -8.957,3.24 -17.892,6.541 -26.837,9.813 l -53.951,19.735 -13.488,4.933 c -2.394,0.875 -1.36,4.735 1.061,3.85 z"
     fill="#e4e4e4" />
  <path
     id="Path_411-4746"
     data-name="Path 411"
     d="m 7.964,136.614 -5.241,4.26 c 1.773,-1.491 3.616,-2.889 5.509,-4.212 z"
     fill="#f2f2f2" />
  <path
     id="Path_412-4747"
     data-name="Path 412"
     d="m 770.649,351.56 c -5.274,-6.42 -10.976,-13.141 -18.864,-15.749 l -7.365,0.29 a 835.38,835.38 0 0 0 222.5,254.374 z"
     fill="#f2f2f2" />
  <path
     id="Path_435-4748"
     data-name="Path 435"
     d="m 447.374,555.168 -1,1.2 0.544,0.182 z"
     fill="#090814" />
  <circle
     id="Ellipse_78"
     data-name="Ellipse 78"
     cx="863.78198"
     cy="38.762001"
     r="38.762001"
     fill="#fd6584"
     style="fill:#f16d6e;fill-opacity:1" />
  <path
     id="Path_440-4749"
     data-name="Path 440"
     d="m 950.535,20.409 a 19.214,19.214 0 0 0 -16.216,-13.487 1.57,1.57 0 0 0 -0.261,0 2.069,2.069 0 0 0 -0.319,-0.073 C 920.76,5.165 906.33,9.259 896.618,18.173 a 34.78,34.78 0 0 0 -8.464,11.672 18.752,18.752 0 0 0 -15.722,-7.665 19.139,19.139 0 0 0 -17.13,13.806 2.216,2.216 0 0 0 1,2.453 9.688,9.688 0 0 0 4.05,2.061 c 3.208,0.682 6.446,1.307 9.683,1.873 q 9.494,1.655 19.09,2.686 6.337,0.675 12.7,1.074 c 8.769,0.552 17.58,0.682 26.364,0.406 4.355,-0.145 8.536,-0.29 12.514,-2.207 a 18.578,18.578 0 0 0 7.186,-6.257 21.119,21.119 0 0 0 2.646,-17.666 z"
     fill="#e6e6e6" />
  <path
     id="Path_441-4750"
     data-name="Path 441"
     d="m 870.791,76.88 a 19.829,19.829 0 0 0 -0.813,-4.791 19.25,19.25 0 0 0 -16.231,-13.487 1.4,1.4 0 0 0 -0.246,0 2.731,2.731 0 0 0 -0.334,-0.073 48.189,48.189 0 0 0 -21.326,2.192 c -10.54,3.528 -19.787,10.641 -24.244,20.8 a 18.76,18.76 0 0 0 -15.737,-7.665 19.139,19.139 0 0 0 -17.13,13.806 2.258,2.258 0 0 0 1,2.453 9.773,9.773 0 0 0 4.05,2.061 c 3.223,0.682 6.446,1.307 9.7,1.873 q 9.494,1.655 19.076,2.686 a 283.336,283.336 0 0 0 39.081,1.481 c 4.341,-0.145 8.536,-0.29 12.514,-2.207 a 18.538,18.538 0 0 0 7.172,-6.257 20.708,20.708 0 0 0 3.47,-12.877 z"
     fill="#e6e6e6" />
  <path
     id="Path_442-4751"
     data-name="Path 442"
     d="m 885.181,171.6 a 8.144,8.144 0 0 0 0.908,5.929 4.947,4.947 0 0 0 5.751,1.9 c 4.06,-1.261 8.066,-2.737 12.092,-4.105 a 2.229,2.229 0 0 0 1.521,-2.679 2.2,2.2 0 0 0 -2.678,-1.521 l -10.06,3.419 c -0.759,0.258 -1.515,0.551 -2.288,0.763 -0.081,0.022 -0.376,0.087 -0.36,0.086 0.037,0 0.266,0.021 0.012,0 q -0.218,-0.066 0,0.029 l -0.192,-0.109 c 0.176,0.146 -0.021,-0.02 -0.082,-0.081 -0.061,-0.061 -0.21,-0.27 -0.089,-0.093 a 2.686,2.686 0 0 1 -0.228,-0.4 c 0.106,0.235 -0.093,-0.347 -0.107,-0.427 a 9.327,9.327 0 0 1 0.154,-2.716 2.188,2.188 0 0 0 -2.178,-2.178 2.233,2.233 0 0 0 -2.176,2.183 z"
     fill="#3f3d56" />
  <path
     id="Path_443-4752"
     data-name="Path 443"
     d="m 723.05,179.247 10.733,13.533 c 1.366,1.722 4.294,-0.142 3.64,-2.119 -1.338,-4.042 3.28,-6.294 6.468,-6.96 4.229,-0.883 8.473,-0.74 12.486,-2.558 2.549,-1.155 0.338,-4.909 -2.2,-3.761 -4.694,2.126 -10.168,1.152 -14.922,3.22 -4.249,1.849 -7.608,6.459 -6.034,11.216 l 3.64,-2.119 -10.733,-13.533 a 2.193,2.193 0 0 0 -3.079,0 2.228,2.228 0 0 0 0,3.08 z"
     fill="#3f3d56" />
  <path
     id="Path_444-4753"
     data-name="Path 444"
     d="m 701.274,21.008 10.733,13.533 c 1.366,1.722 4.294,-0.142 3.64,-2.119 -1.338,-4.042 3.28,-6.294 6.468,-6.96 4.229,-0.883 8.473,-0.74 12.486,-2.558 2.549,-1.155 0.338,-4.909 -2.2,-3.761 -4.694,2.126 -10.168,1.152 -14.922,3.22 -4.249,1.849 -7.608,6.459 -6.034,11.216 l 3.64,-2.119 -10.733,-13.533 a 2.193,2.193 0 0 0 -3.08,0 2.228,2.228 0 0 0 0,3.08 z"
     fill="#3f3d56" />
  <g
     id="Group_23"
     data-name="Group 23"
     transform="translate(211.82,104.48)">
    <path
       id="Path_344-4754"
       data-name="Path 344"
       d="m 768.535,636.849 h -1.467 v -160.5 a 4.385,4.385 0 0 0 -1.623,-3.413 l 0.927,-1.137 a 5.847,5.847 0 0 1 2.163,4.55 z"
       transform="translate(-330.472,-207.925)"
       fill="#3f3d56" />
    <path
       id="Path_345-4755"
       data-name="Path 345"
       d="m 565.922,135.23 a 12.841,12.841 0 0 1 0.843,2.7 c -0.41,-1.417 -0.733,-2.377 -0.843,-2.7 z"
       transform="translate(-277.277,-118.191)"
       fill="#3f3d56" />
    <path
       id="Path_346-4756"
       data-name="Path 346"
       d="m 583.265,196.37 a 21.468,21.468 0 0 1 -1.093,4.664 z"
       transform="translate(-281.608,-134.492)"
       fill="#3f3d56" />
    <path
       id="Path_347-4757"
       data-name="Path 347"
       d="m 607.908,326.648 c -28.844,15.034 -66.577,28.015 -77.878,31.778 8.617,-2.244 33.7,-5.266 72.561,18.98 48.829,30.458 101.039,10.15 101.039,10.15 0,0 -11.6,22.244 -36.259,23.688 -24.659,1.444 -88.953,-39.156 -110.7,-27.553 -21.747,11.603 -31.91,-2.9 -40.615,26.109 -8.705,29.009 -24.656,108.283 -6.283,152.763 l 18.364,44.473 H 423.718 c 0,0 37.711,-100.555 16.919,-162.43 C 429,409.953 412.922,363.9 418.4,366.287 c 0,0 -25.141,-24.656 -33.354,-24.656 -8.213,0 -46.9,-3.865 -59.463,-16.919 0,0 -17.887,-12.57 -49.8,18.371 -31.913,30.941 -24.172,30.942 -52.694,28.521 -28.074,-2.384 -50.068,-16 -50.75,-16.428 0.814,0.33 33.6,13.436 53.647,6.762 20.307,-6.769 37.711,-32.394 55.6,-41.092 17.889,-8.698 28.521,-20.308 52.694,-7.737 l -15.929,-37.557 -4.364,-10.289 -0.007,-0.015 c 0,0 -5.324,-70.581 -15.474,-75.414 -10.15,-4.833 -3.865,-17.4 -22.72,-19.823 0,0 23.2,-2.9 27.553,13.054 4.353,15.954 34.33,102.007 34.33,102.007 0,0 18.364,36.735 38.671,28.037 20.307,-8.698 -7.737,-57.527 -7.737,-57.527 L 333.8,239.624 c 0,0 26.109,-0.968 42.06,14.022 15.951,14.99 16.919,63.328 16.919,63.328 0,0 40.124,5.8 49.8,27.561 0,0 32.87,-19.823 31.426,9.182 0,0 29.005,-27.553 27.069,-36.743 -1.936,-9.19 -4.349,-30.942 -22.72,-43.989 -18.371,-13.047 -30.458,-33.846 -17.4,-63.819 7.341,-16.861 10.553,-25.918 11.962,-30.619 l -7.623,32.553 c 0,0 -4.833,33.357 8.707,44.959 0.037,0.029 0.066,0.059 0.1,0.088 13.516,11.617 31.316,32.79 31.316,32.79 l -0.051,-0.931 12.135,32.841 c 0,0 71.552,-2.421 87.5,-33.847 15.948,-31.426 29.013,-32.87 29.013,-32.87 l -9.186,27.07 -10.15,23.2 c 0,0 41.576,0.968 63.328,25.625 21.752,24.657 75.9,31.91 75.9,31.91 l -30.45,8.214 c 0,0 -29.013,-9.666 -56.566,-27.553 -27.553,-17.887 -24.659,-33.836 -58.981,-15.948 z"
       transform="translate(-172.342,-111.998)"
       fill="#3f3d56" />
    <path
       id="Path_348-4758"
       data-name="Path 348"
       d="m 751.2,314.74 c -3.058,13.538 -6.659,26.615 -11.719,36.581 -15.951,31.426 -87.5,33.846 -87.5,33.846 0,0 0.337,-4.151 0.851,-10.7 18.166,-1.5 67.823,-7.884 80.782,-33.413 1.188,-2.332 2.288,-4.84 3.33,-7.481 z"
       transform="translate(-300.221,-166.051)"
       opacity="0.1" />
    <path
       id="Path_350-4759"
       data-name="Path 350"
       d="m 649.021,243.61 c -0.106,11.903 10.213,-11.099 0,0 z"
       transform="translate(-298.991,-117.445)"
       opacity="0.1" />
    <path
       id="Path_351-4760"
       data-name="Path 351"
       d="m 592.564,419.379 v 10.636 c 0,0 29.006,-27.556 27.073,-36.741 -1.479,-7.025 -3.249,-21.4 -12.213,-33.611 4.04,9.23 5.27,18.233 6.346,23.344 1.387,6.587 -13.136,22.619 -21.464,31.164 a 22.034,22.034 0 0 1 0.258,5.208 z"
       transform="translate(-284.31,-178.028)"
       opacity="0.1" />
    <path
       id="Path_352-4761"
       data-name="Path 352"
       d="m 539.6,341.567 c 0.23,0.49 0.467,0.972 0.718,1.438 7.413,13.768 18.59,28.4 26.952,41.845 -6.755,-13.312 -18.517,-28.535 -27.67,-43.283 z"
       transform="translate(-270.259,-173.204)"
       opacity="0.1" />
    <path
       id="Path_353-4762"
       data-name="Path 353"
       d="m 735.768,467.352 c -15.9,-9.92 -29.5,-15.273 -40.6,-17.985 -11.648,4.384 -21.235,7.653 -26.058,9.258 8.651,-2.24 33.715,-5.214 72.526,18.994 30.451,18.994 62.215,18.245 81.814,14.991 a 50.654,50.654 0 0 0 13.357,-15.11 c 0,0 -52.207,20.308 -101.039,-10.148 z"
       transform="translate(-304.787,-201.945)"
       opacity="0.1" />
    <path
       id="Path_354-4763"
       data-name="Path 354"
       d="m 568.45,283.969 c -3.9,-9.552 -4.541,-20.918 -0.062,-34.237 a 104.5,104.5 0 0 1 0.834,-14.44 l 7.612,-32.563 c -1.4,4.7 -4.615,13.755 -11.963,30.63 -9.303,21.362 -5.831,38.055 3.579,50.61 z"
       transform="translate(-275.536,-136.187)"
       opacity="0.1" />
    <path
       id="Path_355-4764"
       data-name="Path 355"
       d="m 841.944,400.313 c -15.087,-17.1 -39.7,-22.8 -53.377,-24.694 l -4.086,9.339 c 0,0 41.575,0.967 63.33,25.622 12.064,13.672 34.086,21.991 51.314,26.691 l 18.719,-5.051 c 0,0 -54.144,-7.252 -75.9,-31.907 z"
       transform="translate(-335.547,-182.282)"
       opacity="0.1" />
    <path
       id="Path_356-4765"
       data-name="Path 356"
       d="m 445.3,379.177 c 20.3,-8.7 -7.735,-57.529 -7.735,-57.529 l -0.767,-0.352 c 6.99,14.749 17.128,41.4 2.635,47.613 -13.562,5.812 -26.26,-8.648 -33.2,-18.893 l 0.39,1.122 c 0,0 18.377,36.74 38.677,28.039 z"
       transform="translate(-234.702,-167.799)"
       opacity="0.1" />
    <path
       id="Path_358-4766"
       data-name="Path 358"
       d="m 583.172,201.034 a 21.451,21.451 0 0 0 1.09,-4.661 z"
       transform="translate(-281.874,-134.493)"
       opacity="0.1" />
    <path
       id="Path_359-4767"
       data-name="Path 359"
       d="m 232.561,438.711 c 0.1,-0.031 0.2,-0.06 0.293,-0.092 20.3,-6.768 37.708,-32.39 55.6,-41.092 17.892,-8.702 28.523,-20.3 52.695,-7.735 0,0 -4.229,-17.31 -12.424,-28.682 a 112.786,112.786 0 0 1 6.556,18.414 c -24.172,-12.569 -34.807,-0.967 -52.695,7.735 -17.888,8.702 -35.291,34.324 -55.6,41.092 -20.309,6.768 -53.662,-6.768 -53.662,-6.768 0,0 22.238,14.02 50.761,16.437 3.265,0.28 6.049,0.52 8.476,0.691 z"
       transform="translate(-172.605,-178.414)"
       opacity="0.1" />
    <path
       id="Path_360-4768"
       data-name="Path 360"
       d="m 368.767,307.5 c 0,0 -0.792,0.015 -2.229,0.037 l -4.364,-10.289 c 0.477,-0.007 0.726,-0.015 0.726,-0.015 0,0 -3.359,-44.517 -9.827,-65.264 0.081,0.037 0.147,0.081 0.22,0.117 10.149,4.834 15.474,75.414 15.474,75.414 z"
       transform="translate(-220.527,-143.983)"
       opacity="0.1" />
    <path
       id="Path_361-4769"
       data-name="Path 361"
       d="m 525.5,715.66 c 8.858,-27.154 30.16,-102.242 13.389,-152.168 -7.243,-21.561 -13.957,-35.309 -19.632,-44.08 a 249.23,249.23 0 0 1 13.765,33.813 C 553.811,615.1 516.1,715.66 516.1,715.66 Z"
       transform="translate(-263.993,-220.619)"
       opacity="0.1" />
    <path
       id="Path_363-4770"
       data-name="Path 363"
       d="m 338.4,211.727 a 12.649,12.649 0 0 0 1.988,2.542 14.267,14.267 0 0 0 -1.988,-2.542 z"
       transform="translate(-216.614,-138.586)"
       opacity="0.1" />
    <path
       id="Path_364-4771"
       data-name="Path 364"
       d="m 441.42,310.3 a 23.561,23.561 0 0 1 2.1,2.26 c -2.118,-5.091 -4.733,-9.493 -7.963,-12.527 -15.953,-14.987 -42.059,-14.02 -42.059,-14.02 l 32.739,15.005 a 46.753,46.753 0 0 1 15.183,9.282 z"
       transform="translate(-231.305,-158.39)"
       opacity="0.1" />
    <path
       id="Path_366-4772"
       data-name="Path 366"
       d="m 567.737,137.85 a 13.836,13.836 0 0 0 -0.878,-2.782 c 0,0 0.372,1.044 0.878,2.782 z"
       transform="translate(-277.525,-118.148)"
       opacity="0.1" />
    <path
       id="Path_367-4773"
       data-name="Path 367"
       d="m 329.674,201.4 c 4.261,0.522 9.162,1.829 12.9,4.861 -0.244,-0.825 -0.457,-1.564 -0.626,-2.185 -4.351,-15.953 -27.556,-13.053 -27.556,-13.053 10.486,1.346 13.195,5.831 15.282,10.377 z"
       transform="translate(-210.214,-133.012)"
       opacity="0.1" />
    <path
       id="Path_368-4774"
       data-name="Path 368"
       d="m 954.864,747.711 c -7.21,11.057 -5.234,25.12 -5.234,25.12 0,0 13.665,-3.864 20.875,-14.921 7.21,-11.057 5.234,-25.119 5.234,-25.119 0,0 -13.665,3.863 -20.875,14.92 z"
       transform="translate(-379.512,-277.509)"
       fill="#3f3d56" />
    <path
       id="Path_369-4775"
       data-name="Path 369"
       d="m 957.45,746.973 c -0.57,13.187 -10.359,23.475 -10.359,23.475 0,0 -8.865,-11.094 -8.3,-24.281 0.565,-13.187 10.359,-23.475 10.359,-23.475 0,0 8.87,11.094 8.3,24.281 z"
       transform="translate(-376.682,-274.817)"
       fill="#60c3aa" />
    <path
       id="Path_370-4776"
       data-name="Path 370"
       d="m 791.088,639.4 c 0,0 8.3,-8.7 11.692,-6.952 3.392,1.748 -9.763,9.534 -9.763,9.534 z"
       transform="translate(-337.308,-250.693)"
       fill="#ffb9b9" />
    <path
       id="Path_371-4777"
       data-name="Path 371"
       d="m 791.088,639.4 c 0,0 8.3,-8.7 11.692,-6.952 3.392,1.748 -9.763,9.534 -9.763,9.534 z"
       transform="translate(-337.308,-250.693)"
       opacity="0.1" />
    <path
       id="Path_372-4778"
       data-name="Path 372"
       d="m 755.707,615.975 c 0,0 -3.05,5.466 -2.252,11.359 0.798,5.893 8.1,24.8 10.577,24.465 2.477,-0.335 20.86,-13.879 20.86,-13.879 l -3.505,-4.894 -13.426,8.135 c 0,0 -2.045,-29.095 -12.254,-25.186 z"
       transform="translate(-327.239,-246.268)"
       fill="#d0cde1" />
    <path
       id="Path_373-4779"
       data-name="Path 373"
       d="M 814.427,630.484 793.5,641.98 a 1,1 0 0 1 -1.465,-0.432 L 786.9,630.831 a 1.338,1.338 0 0 1 0.686,-1.607 l 17.378,-8.957 a 1.015,1.015 0 0 1 1.33,0.254 l 8.68,8.178 a 1.289,1.289 0 0 1 -0.55,1.785 z"
       transform="translate(-336.176,-247.47)"
       fill="#090814" />
    <path
       id="Path_374-4780"
       data-name="Path 374"
       d="m 641.177,517.422 -19.622,11.216 -5.222,-9.411 16.833,-9.154 z"
       transform="translate(-164.324,-135.992)"
       fill="#60c3aa" />
    <ellipse
       id="Ellipse_73"
       data-name="Ellipse 73"
       cx="0.289"
       cy="0.24600001"
       rx="0.289"
       ry="0.24600001"
       transform="rotate(-50.158,633.87463,-302.23663)"
       fill="#f2f2f2" />
    <ellipse
       id="Ellipse_74"
       data-name="Ellipse 74"
       cx="0.193"
       cy="0.164"
       rx="0.193"
       ry="0.164"
       transform="rotate(-50.158,647.84429,-305.35108)"
       fill="#f2f2f2" />
    <path
       id="Path_375-4781"
       data-name="Path 375"
       d="m 755.707,615.975 c 0,0 -3.05,5.466 -2.252,11.359 0.798,5.893 8.1,24.8 10.577,24.465 2.477,-0.335 20.86,-13.879 20.86,-13.879 l -3.505,-4.894 -13.426,8.135 c 0,0 -2.045,-29.095 -12.254,-25.186 z"
       transform="translate(-327.239,-246.268)"
       opacity="0.1" />
    <path
       id="Path_376-4782"
       data-name="Path 376"
       d="m 783.44,642.2 c 0,0 9.389,-7.511 12.519,-5.32 3.13,2.191 -10.954,8.137 -10.954,8.137 z"
       transform="translate(-335.27,-251.83)"
       fill="#ffb9b9" />
    <circle
       id="Ellipse_75"
       data-name="Ellipse 75"
       cx="9.0760002"
       cy="9.0760002"
       r="9.0760002"
       transform="translate(426.575,342.168)"
       fill="#ffb9b9" />
    <path
       id="Path_377-4783"
       data-name="Path 377"
       d="m 805.5,677.134 c 0,0 9.7,1.252 9.389,7.2 -0.311,5.948 -7.51,30.666 -7.51,30.666 l -0.626,9.7 c 0,0 0.626,16.274 -1.252,15.961 -1.878,-0.313 -6.259,-11.58 -6.259,-11.58 0,0 -5.32,-3.443 -2.817,-6.572 2.503,-3.129 4.382,-2.817 3.756,-6.259 -0.626,-3.442 -0.313,-17.839 1.565,-22.221 1.878,-4.382 2.972,-6.8 2.972,-6.8 l -6.1,-0.4 z"
       transform="translate(-338.553,-262.671)"
       fill="#ffb9b9" />
    <path
       id="Path_378-4784"
       data-name="Path 378"
       d="m 805.5,677.134 c 0,0 9.7,1.252 9.389,7.2 -0.311,5.948 -7.51,30.666 -7.51,30.666 l -0.626,9.7 c 0,0 0.626,16.274 -1.252,15.961 -1.878,-0.313 -6.259,-11.58 -6.259,-11.58 0,0 -5.32,-3.443 -2.817,-6.572 2.503,-3.129 4.382,-2.817 3.756,-6.259 -0.626,-3.442 -0.313,-17.839 1.565,-22.221 1.878,-4.382 2.972,-6.8 2.972,-6.8 l -6.1,-0.4 z"
       transform="translate(-338.553,-262.671)"
       opacity="0.1" />
    <path
       id="Path_379-4785"
       data-name="Path 379"
       d="m 807.509,679.268 c 0,0 9.389,2.191 10.328,8.45 0.939,6.259 5.633,24.724 5.633,24.724 l 5.008,11.58 c 0,0 7.824,14.084 4.381,13.771 -3.443,-0.313 -8.137,-7.2 -9.7,-7.2 -1.563,0 -6.259,-1.878 -5.946,-3.13 a 36.3,36.3 0 0 1 2.5,-5.007 l -7.572,-13.19 a 32.038,32.038 0 0 1 -3.284,-8.128 56.98,56.98 0 0 1 -1.663,-8.1 c 0,-2.191 -6.259,-3.13 -6.259,-3.13 z"
       transform="translate(-339.934,-263.239)"
       fill="#ffb9b9" />
    <path
       id="Path_380-4786"
       data-name="Path 380"
       d="m 756.888,651.956 4.382,12.519 c 0,0 6.885,1.878 11.893,3.443 5.008,1.565 14.4,-0.626 15.335,3.13 0.935,3.756 -1.878,10.328 -4.695,11.893 -2.817,1.565 -4.382,3.13 -13.458,0.626 -9.076,-2.504 -30.671,-3.13 -30.671,-3.13 a 15.687,15.687 0 0 1 -6.885,2.191 c -4.069,0.313 -5.007,0.626 -6.259,-0.313 -1.252,-0.939 0.626,-0.939 1.252,-3.443 0.626,-2.504 0.939,-1.565 3.756,-4.382 2.817,-2.817 5.008,-11.267 6.572,-14.083 1.564,-2.816 2.5,-8.45 2.5,-8.45 z"
       transform="translate(-319.984,-255.958)"
       fill="#090814" />
    <path
       id="Path_381-4787"
       data-name="Path 381"
       d="m 762.445,598.906 a 9.164,9.164 0 0 0 -3.755,7.2 c 0,4.695 -9.389,-5.007 -9.389,-5.007 0,0 5.008,-6.259 5.008,-8.137 0,-1.878 8.136,5.944 8.136,5.944 z"
       transform="translate(-326.168,-240.151)"
       fill="#ffb9b9" />
    <path
       id="Path_382-4788"
       data-name="Path 382"
       d="m 748.195,598.614 c 0,0 5.633,2.191 6.885,5.32 1.252,3.129 5.946,9.7 5.946,9.7 0,0 6.572,6.885 4.382,14.4 -2.19,7.515 -4.069,9.389 -4.069,10.641 0,1.252 -3.13,3.443 -5.633,3.13 -2.503,-0.313 -11.893,-1.565 -12.519,-2.817 -0.626,-1.252 -4.382,-19.091 -1.878,-25.663 a 151.889,151.889 0 0 1 6.885,-14.709 z"
       transform="translate(-323.809,-241.736)"
       fill="#d6d6e3" />
    <path
       id="Path_383-4789"
       data-name="Path 383"
       d="m 761.348,585.526 c 2.031,0.482 4.024,-0.812 5.688,-2.1 0.945,-0.729 1.985,-1.768 1.7,-2.94 -0.257,-1.04 -1.482,-1.63 -1.661,-2.687 -0.124,-0.735 0.305,-1.449 0.34,-2.194 a 3.1,3.1 0 0 0 -1.822,-2.658 c -0.99,-0.533 -2.112,-0.755 -3.129,-1.232 -1.552,-0.728 -2.843,-2.041 -4.5,-2.461 -2.265,-0.574 -4.571,0.649 -6.9,0.807 -1.409,0.1 -2.836,-0.2 -4.231,0.03 a 6.039,6.039 0 0 0 -4.838,5.7 c -0.018,1 0.181,2.107 -0.413,2.9 a 4.379,4.379 0 0 1 -0.8,0.721 9.636,9.636 0 0 0 -3.118,7.168 c -0.053,1.327 0.225,2.9 1.4,3.466 a 5.2,5.2 0 0 0 1.962,0.273 2.05,2.05 0 0 1 1.732,0.827 c 0.536,0.946 -0.267,2.343 0.434,3.168 a 1.589,1.589 0 0 0 2.17,-0.114 c 0.615,-0.528 1,-1.288 1.582,-1.853 1.134,-1.1 2.817,-1.3 4.372,-1.465 a 2.219,2.219 0 0 0 1.283,-0.421 1.983,1.983 0 0 0 0.526,-1.078 6.685,6.685 0 0 0 0.008,-2.832 1.574,1.574 0 0 1 -0.036,-0.9 1.273,1.273 0 0 1 0.459,-0.514 c 0.964,-0.724 2.652,-1.778 3.9,-1.579 1.396,0.229 2.49,1.635 3.892,1.968 z"
       transform="translate(-323.063,-233.869)"
       fill="#090814" />
    <path
       id="Path_384-4790"
       data-name="Path 384"
       d="m 751.349,613.921 c 0,0 -3.755,5.008 -3.755,10.954 0,5.946 4.695,25.663 7.2,25.663 2.505,0 22.534,-10.954 22.534,-10.954 l -2.817,-5.32 -14.4,6.259 c 0,0 1.879,-29.106 -8.762,-26.602 z"
       transform="translate(-325.711,-245.776)"
       fill="#d6d6e3" />
    <rect
       id="Rectangle_124"
       data-name="Rectangle 124"
       width="71.872002"
       height="13.934"
       transform="translate(396.26,424.635)"
       fill="#60c3aa"
       x="0"
       y="0" />
    <path
       id="Path_385-4791"
       data-name="Path 385"
       d="m 759.525,646.749 a 5.874,5.874 0 0 1 -5.867,-5.867 V 475.87 a 5.867,5.867 0 0 1 9.571,-4.55 l -0.927,1.137 a 4.4,4.4 0 0 0 -7.178,3.413 v 165.012 a 4.405,4.405 0 0 0 4.4,4.4 z"
       transform="translate(-327.328,-207.446)"
       fill="#3f3d56" />
    <ellipse
       id="Ellipse_76"
       data-name="Ellipse 76"
       cx="0.73299998"
       cy="2.2"
       rx="0.73299998"
       ry="2.2"
       transform="rotate(-38.768,697.99819,-421.61736)"
       fill="#60c3aa" />
    <path
       id="Path_386-4792"
       data-name="Path 386"
       d="m 658.864,747.711 c -7.21,11.057 -5.234,25.12 -5.234,25.12 0,0 13.665,-3.864 20.875,-14.921 7.21,-11.057 5.234,-25.119 5.234,-25.119 0,0 -13.665,3.863 -20.875,14.92 z"
       transform="translate(-300.594,-277.509)"
       fill="#3f3d56" />
    <path
       id="Path_387-4793"
       data-name="Path 387"
       d="m 661.45,746.973 c -0.57,13.187 -10.359,23.475 -10.359,23.475 0,0 -8.865,-11.094 -8.3,-24.281 0.565,-13.187 10.359,-23.475 10.359,-23.475 0,0 8.87,11.094 8.3,24.281 z"
       transform="translate(-297.764,-274.817)"
       fill="#60c3aa" />
    <path
       id="Path_388-4794"
       data-name="Path 388"
       d="m 498.689,749.564 c 3.447,12.742 15.253,20.633 15.253,20.633 0,0 6.218,-12.767 2.771,-25.509 -3.447,-12.742 -15.253,-20.633 -15.253,-20.633 0,0 -6.218,12.768 -2.771,25.509 z"
       transform="translate(-259.073,-275.18)"
       fill="#3f3d56" />
    <path
       id="Path_389-4795"
       data-name="Path 389"
       d="m 497.38,751.475 c 9.458,9.207 10.614,23.361 10.614,23.361 0,0 -14.18,-0.774 -23.638,-9.982 -9.458,-9.208 -10.614,-23.361 -10.614,-23.361 0,0 14.18,0.775 23.638,9.982 z"
       transform="translate(-252.699,-279.83)"
       fill="#60c3aa" />
    <path
       id="Path_390-4796"
       data-name="Path 390"
       d="m 456.433,275.161 c -0.822,13.174 -10.807,23.272 -10.807,23.272 0,0 -8.651,-11.261 -7.826,-24.433 0.825,-13.172 10.8,-23.275 10.8,-23.275 0,0 8.656,11.261 7.833,24.436 z"
       transform="translate(-243.101,-148.984)"
       fill="#60c3aa" />
    <path
       id="Path_392-4797"
       data-name="Path 392"
       d="m 278.152,387.6 c 11.166,7.04 15.238,20.644 15.238,20.644 0,0 -14.031,2.191 -25.2,-4.849 -11.169,-7.04 -15.239,-20.644 -15.239,-20.644 0,0 14.035,-2.188 25.201,4.849 z"
       transform="translate(-193.835,-184.099)"
       fill="#60c3aa" />
    <path
       id="Path_393-4798"
       data-name="Path 393"
       d="m 589.908,193.231 c -3.367,12.763 -15.124,20.728 -15.124,20.728 0,0 -6.3,-12.728 -2.93,-25.491 3.37,-12.763 15.124,-20.728 15.124,-20.728 0,0 6.298,12.728 2.93,25.491 z"
       transform="translate(-278.593,-126.859)"
       fill="#60c3aa" />
    <path
       id="Path_395-4799"
       data-name="Path 395"
       d="m 890.547,398.026 c -7.169,11.083 -20.82,15 -20.82,15 0,0 -2.027,-14.055 5.142,-25.139 7.169,-11.084 20.82,-15 20.82,-15 0,0 2.027,14.056 -5.142,25.139 z"
       transform="translate(-358.204,-181.554)"
       fill="#60c3aa" />
    <path
       id="Path_396-4800"
       data-name="Path 396"
       d="M 866,206"
       transform="translate(-357.28,-137.06)"
       fill="#3f3d56" />
  </g>
  <rect
     id="Rectangle_125"
     data-name="Rectangle 125"
     width="558.08398"
     height="2.9030001"
     fill="#3f3d56"
     x="264.66599"
     y="649.28802" />
  <rect
     id="Rectangle_125-2"
     data-name="Rectangle 125"
     width="558.08398"
     height="2.9030001"
     fill="#3f3d56"
     x="264.61237"
     y="598" />
  <text
     xml:space="preserve"
     style="font-weight:bold;font-size:38.9595px;font-family:'Adwaita Mono';-inkscape-font-specification:'Adwaita Mono, Bold';text-align:start;writing-mode:lr-tb;direction:ltr;text-anchor:start;opacity:0.85;fill:#f16d6e;fill-opacity:1;stroke:none;stroke-width:0.334153;stroke-miterlimit:0;paint-order:markers stroke fill"
     x="245.55275"
     y="295.57736"
     id="text1"><tspan
       sodipodi:role="line"
       id="tspan1"
       x="245.55275"
       y="295.57736"
       style="fill:#f16d6e;fill-opacity:1;stroke:none;stroke-width:0.334153">A⇒A</tspan></text>
  <text
     xml:space="preserve"
     style="font-weight:bold;font-size:38.9595px;font-family:'Adwaita Mono';-inkscape-font-specification:'Adwaita Mono, Bold';text-align:start;writing-mode:lr-tb;direction:ltr;text-anchor:start;opacity:0.85;fill:#f16d6e;fill-opacity:1;stroke:none;stroke-width:0.334153;stroke-miterlimit:0;paint-order:markers stroke fill"
     x="378.83841"
     y="204.28035"
     id="text1-5"><tspan
       sodipodi:role="line"
       id="tspan1-3"
       x="378.83841"
       y="204.28035"
       style="fill:#f16d6e;fill-opacity:1;stroke:none;stroke-width:0.334153">C⇒C</tspan></text>
  <text
     xml:space="preserve"
     style="font-weight:bold;font-size:38.9595px;font-family:'Adwaita Mono';-inkscape-font-specification:'Adwaita Mono, Bold';text-align:start;writing-mode:lr-tb;direction:ltr;text-anchor:start;opacity:0.85;fill:#f16d6e;fill-opacity:1;stroke:none;stroke-width:0.334153;stroke-miterlimit:0;paint-order:markers stroke fill"
     x="482.41425"
     y="147.66611"
     id="text1-5-9"><tspan
       sodipodi:role="line"
       id="tspan1-3-1"
       x="482.41425"
       y="147.66611"
       style="fill:#f16d6e;fill-opacity:1;stroke:none;stroke-width:0.334153">B⇒B</tspan></text>
  <text
     xml:space="preserve"
     style="font-weight:bold;font-size:38.9595px;font-family:'Adwaita Mono';-inkscape-font-specification:'Adwaita Mono, Bold';text-align:start;writing-mode:lr-tb;direction:ltr;text-anchor:start;opacity:0.85;fill:#60c3aa;fill-opacity:1;stroke:none;stroke-width:0.334153;stroke-miterlimit:0;paint-order:markers stroke fill"
     x="300.21634"
     y="638.73425"
     id="text1-5-9-7"><tspan
       sodipodi:role="line"
       id="tspan1-3-1-9"
       x="300.21634"
       y="638.73425"
       style="fill:#60c3aa;fill-opacity:1;stroke:none;stroke-width:0.334153">((A∨B)∧(A⇒C)∧(B⇒C)⇒C</tspan></text>
  <text
     xml:space="preserve"
     style="font-weight:bold;font-size:38.9595px;font-family:'Adwaita Mono';-inkscape-font-specification:'Adwaita Mono, Bold';text-align:start;writing-mode:lr-tb;direction:ltr;text-anchor:start;opacity:0.85;fill:#f16d6e;fill-opacity:1;stroke:none;stroke-width:0.334153;stroke-miterlimit:0;paint-order:markers stroke fill"
     x="708.52643"
     y="299.14218"
     id="text1-5-9-9"><tspan
       sodipodi:role="line"
       id="tspan1-3-1-3"
       x="708.52643"
       y="299.14218"
       style="fill:#f16d6e;fill-opacity:1;stroke:none;stroke-width:0.334153">C⇒C</tspan></text>
</svg>
