<?xml version="1.0" encoding="UTF-8" standalone="no"?>
<!-- Created with Inkscape (http://www.inkscape.org/) -->

<svg
   width="210mm"
   height="131mm"
   viewBox="0 0 210 131"
   version="1.1"
   id="svg1"
   xml:space="preserve"
   inkscape:version="1.4.2 (ebf0e940d0, 2025-05-08)"
   sodipodi:docname="proof_importance.svg"
   inkscape:export-filename="proof_importance.png"
   inkscape:export-xdpi="96"
   inkscape:export-ydpi="96"
   xmlns:inkscape="http://www.inkscape.org/namespaces/inkscape"
   xmlns:sodipodi="http://sodipodi.sourceforge.net/DTD/sodipodi-0.dtd"
   xmlns="http://www.w3.org/2000/svg"
   xmlns:svg="http://www.w3.org/2000/svg"><sodipodi:namedview
     id="namedview1"
     pagecolor="#ffffff"
     bordercolor="#999999"
     borderopacity="1"
     inkscape:showpageshadow="2"
     inkscape:pageopacity="0"
     inkscape:pagecheckerboard="0"
     inkscape:deskcolor="#d1d1d1"
     inkscape:document-units="mm"
     inkscape:zoom="1.0293026"
     inkscape:cx="393.4703"
     inkscape:cy="281.2584"
     inkscape:window-width="1920"
     inkscape:window-height="1004"
     inkscape:window-x="0"
     inkscape:window-y="0"
     inkscape:window-maximized="1"
     inkscape:current-layer="layer1"
     showguides="true" /><defs
     id="defs1"><marker
   style="overflow:visible"
   id="Triangle"
   refX="0"
   refY="0"
   orient="auto-start-reverse"
   inkscape:stockid="Triangle arrow"
   markerWidth="1"
   markerHeight="1"
   viewBox="0 0 1 1"
   inkscape:isstock="true"
   inkscape:collect="always"
   preserveAspectRatio="xMidYMid"><path
     transform="scale(0.5)"
     style="fill:context-stroke;fill-rule:evenodd;stroke:context-stroke;stroke-width:1pt"
     d="M 5.77,0 -2.88,5 V -5 Z"
     id="path135" /></marker><inkscape:path-effect
   effect="bspline"
   id="path-effect15"
   is_visible="true"
   lpeversion="1.3"
   weight="33.333333"
   steps="2"
   helper_size="0"
   apply_no_weight="true"
   apply_with_weight="true"
   only_selected="false"
   uniform="false" /><inkscape:path-effect
   effect="bspline"
   id="path-effect14"
   is_visible="true"
   lpeversion="1.3"
   weight="33.333333"
   steps="2"
   helper_size="0"
   apply_no_weight="true"
   apply_with_weight="true"
   only_selected="false"
   uniform="false" /><inkscape:path-effect
   effect="spiro"
   id="path-effect13"
   is_visible="true"
   lpeversion="1" /><inkscape:path-effect
   effect="spiro"
   id="path-effect12"
   is_visible="true"
   lpeversion="1" /><inkscape:path-effect
   effect="spiro"
   id="path-effect11"
   is_visible="true"
   lpeversion="1" />
	
	

		
		
	
			
			
		









<marker
   style="overflow:visible"
   id="Triangle-1"
   refX="0"
   refY="0"
   orient="auto-start-reverse"
   inkscape:stockid="Triangle arrow"
   markerWidth="1"
   markerHeight="1"
   viewBox="0 0 1 1"
   inkscape:isstock="true"
   inkscape:collect="always"
   preserveAspectRatio="xMidYMid"><path
     transform="scale(0.5)"
     style="fill:context-stroke;fill-rule:evenodd;stroke:context-stroke;stroke-width:1pt"
     d="M 5.77,0 -2.88,5 V -5 Z"
     id="path135-7" /></marker></defs><g
     inkscape:label="Layer 1"
     inkscape:groupmode="layer"
     id="layer1"><g
       id="Security02"
       transform="matrix(1.1863943,0,0,1.1863943,130.37645,21.323704)" /><g
       id="Security03"
       transform="matrix(1.1863943,0,0,1.1863943,130.37645,21.323704)" /><g
       id="Security04"
       transform="matrix(1.1863943,0,0,1.1863943,130.37645,21.323704)" /><g
       id="Security05"
       transform="matrix(1.1863943,0,0,1.1863943,130.37645,21.323704)" /><g
       id="Security06"
       transform="matrix(1.1863943,0,0,1.1863943,130.37645,21.323704)" /><g
       id="Security07"
       transform="matrix(1.1863943,0,0,1.1863943,130.37645,21.323704)" /><g
       id="Security08"
       transform="matrix(1.1863943,0,0,1.1863943,130.37645,21.323704)" /><g
       id="Security09"
       transform="matrix(1.1863943,0,0,1.1863943,130.37645,21.323704)" /><g
       id="Security10"
       transform="matrix(1.1863943,0,0,1.1863943,130.37645,21.323704)" /><g
       id="Security11"
       transform="matrix(1.1863943,0,0,1.1863943,130.37645,21.323704)" /><g
       id="Security12"
       transform="matrix(1.1863943,0,0,1.1863943,130.37645,21.323704)" /><g
       id="Security13"
       transform="matrix(1.1863943,0,0,1.1863943,130.37645,21.323704)" /><g
       id="Security14"
       transform="matrix(1.1863943,0,0,1.1863943,130.37645,21.323704)" /><g
       id="Security15"
       transform="matrix(1.1863943,0,0,1.1863943,130.37645,21.323704)" /><g
       id="Security16"
       transform="matrix(1.1863943,0,0,1.1863943,130.37645,21.323704)" /><g
       id="Security17"
       transform="matrix(1.1863943,0,0,1.1863943,130.37645,21.323704)" /><g
       id="Security18"
       transform="matrix(1.1863943,0,0,1.1863943,130.37645,21.323704)" /><g
       id="Security19"
       transform="matrix(1.1863943,0,0,1.1863943,130.37645,21.323704)" /><g
       id="g6"
       transform="translate(0,9.2216896)"><g
         id="g5"><path
           style="fill:#f16d6e;fill-opacity:1;stroke-width:0.093197"
           d="m 55.95152,50.486291 v 38.390441 c 0,2.567297 -2.09805,4.665441 -4.665441,4.665441 h -30.92993 c -0.142219,0 -0.284531,-0.0071 -0.419573,-0.02134 -0.142219,-0.0071 -0.277354,-0.02843 -0.41249,-0.05685 -0.07111,-0.0071 -0.142218,-0.02134 -0.206245,-0.04268 -0.391147,-0.08537 -0.768036,-0.227587 -1.10951,-0.41249 -0.0071,0 -0.0071,-0.0071 -0.0071,-0.0071 -0.02134,-0.0071 -0.04268,-0.01426 -0.05694,-0.02842 -0.135136,-0.0712 -0.263188,-0.149394 -0.384065,-0.234763 -0.149301,-0.09245 -0.291613,-0.199162 -0.419573,-0.320038 -0.09245,-0.0712 -0.177819,-0.156478 -0.263095,-0.241846 -0.16356,-0.156478 -0.312955,-0.334205 -0.448091,-0.519201 -0.04268,-0.05685 -0.08537,-0.120876 -0.128052,-0.17782 -0.09954,-0.142218 -0.192079,-0.29152 -0.263095,-0.440914 -0.07111,-0.12097 -0.128053,-0.248929 -0.17782,-0.376889 -0.05694,-0.128053 -0.106711,-0.263188 -0.149395,-0.405407 -0.03551,-0.09245 -0.05694,-0.17782 -0.07819,-0.277354 -0.02134,-0.07819 -0.04268,-0.163561 -0.05694,-0.248929 -0.01426,-0.0712 -0.02134,-0.149302 -0.03551,-0.220504 0,-0.01426 -0.0071,-0.02852 -0.0071,-0.04259 -0.02134,-0.192079 -0.03551,-0.391241 -0.03551,-0.590216 V 62.541133 L 32.410897,45.827934 h 18.875182 c 0.547626,0 1.073909,0.09236 1.557508,0.277261 1.322838,0.46235 2.368322,1.514916 2.830579,2.830578 0.09245,0.22768 0.156477,0.46235 0.199162,0.704196 0.02842,0.135043 0.04268,0.277354 0.05694,0.41249 0.01417,0.142125 0.02125,0.291613 0.02125,0.433832 z"
           id="path1" /><path
           style="fill:#7f3f3e;fill-opacity:1;stroke-width:0.093197"
           d="m 27.745736,62.540014 c 2.565061,0 4.663763,-2.098702 4.663763,-4.663763 V 45.825324 l -16.71469,16.71469 z"
           id="path2" /><path
           style="opacity:0.06;fill:#040000;stroke-width:0.093197"
           d="m 55.95152,50.486291 v 38.390441 c 0,2.567297 -2.09805,4.665441 -4.665441,4.665441 h -30.92993 c -0.142219,0 -0.284531,-0.0071 -0.419573,-0.02134 -0.142219,-0.0071 -0.277354,-0.02843 -0.41249,-0.05685 -0.07111,-0.0071 -0.142218,-0.02134 -0.206245,-0.04268 -0.391147,-0.08537 -0.768036,-0.227587 -1.10951,-0.41249 -0.0071,0 -0.0071,-0.0071 -0.0071,-0.0071 -0.02134,-0.0071 -0.04268,-0.01426 -0.05694,-0.02842 -0.135136,-0.0712 -0.263188,-0.149394 -0.384065,-0.234763 -0.149301,-0.09245 -0.291613,-0.199162 -0.419573,-0.320038 -0.09245,-0.0712 -0.177819,-0.156478 -0.263095,-0.241846 -0.16356,-0.156478 -0.312955,-0.334205 -0.448091,-0.519201 -0.04268,-0.05685 -0.08537,-0.120876 -0.128052,-0.17782 -0.09954,-0.142218 -0.192079,-0.29152 -0.263095,-0.440914 -0.07111,-0.12097 -0.128053,-0.248929 -0.17782,-0.376889 -0.05694,-0.128053 -0.106711,-0.263188 -0.149395,-0.405407 -0.03551,-0.09245 -0.05694,-0.17782 -0.07819,-0.277354 -0.02134,-0.07819 -0.04268,-0.163561 -0.05694,-0.248929 l 19.045919,-19.045919 1.095251,-1.088168 0.924513,-0.931597 h 0.0071 l 19.02457,-19.024479 c 0.02842,0.135043 0.04268,0.277354 0.05694,0.41249 0.01417,0.142125 0.02125,0.291613 0.02125,0.433832 z"
           id="path3" /></g><text
         xml:space="preserve"
         style="font-size:13.8507px;line-height:normal;font-family:'Adwaita Sans';-inkscape-font-specification:'Adwaita Sans, @opsz=32';font-variation-settings:'opsz' 32;text-align:start;text-decoration-color:#000000;writing-mode:lr-tb;direction:ltr;text-anchor:start;fill:#60c3aa;fill-opacity:1;stroke-width:0.324;stroke-dasharray:none;paint-order:markers stroke fill"
         x="18.081684"
         y="40.683037"
         id="text3-8"><tspan
           sodipodi:role="line"
           id="tspan3-9"
           style="font-style:normal;font-variant:normal;font-weight:normal;font-stretch:normal;font-size:13.8507px;font-family:'Adwaita Sans';-inkscape-font-specification:'Adwaita Sans, @opsz=32,wght=700';font-variant-ligatures:normal;font-variant-caps:normal;font-variant-numeric:normal;font-variant-east-asian:normal;font-variation-settings:'opsz' 32, 'wght' 700;fill:#f16d6e;fill-opacity:1;stroke-width:0.324;stroke-dasharray:none"
           x="18.081684"
           y="40.683037">Proof</tspan></text></g><g
       id="g7"
       transform="translate(0,-3.7041668)"><g
         id="g4"
         transform="matrix(1.1863943,0,0,1.1863943,139.14893,22.98644)"><path
           d="M 31,8 C 31,8.23 30.83,31 16,31 1.17,31 1,8.23 1,8 1,7.6 1.24,7.24 1.61,7.08 l 14,-6 c 0.25,-0.11 0.53,-0.11 0.78,0 l 14,6 C 30.76,7.24 31,7.6 31,8 Z"
           fill="#2197f3"
           id="path1-6"
           style="fill:#60c3aa;fill-opacity:1" /><g
           id="g2">

<path
   d="m 14.2891,22 c -0.0039,0 -0.0078,0 -0.0112,0 -0.3145,-0.0034 -0.6084,-0.1548 -0.7944,-0.4077 L 9.1944,15.7588 C 8.8673,15.314 8.963,14.688 9.4078,14.3609 c 0.4448,-0.3286 1.0713,-0.231 1.3979,0.2134 l 3.5024,4.7637 6.8999,-8.9487 c 0.3369,-0.4375 0.9653,-0.519 1.4028,-0.1812 0.437,0.3374 0.5186,0.9653 0.1812,1.4028 l -7.7109,10 C 14.8916,21.8564 14.5991,22 14.2891,22 Z"
   fill="#ffffff"
   id="path2-1" />

</g></g><text
         xml:space="preserve"
         style="font-size:13.8507px;line-height:normal;font-family:'Adwaita Sans';-inkscape-font-specification:'Adwaita Sans, @opsz=32';font-variation-settings:'opsz' 32;text-align:start;text-decoration-color:#000000;writing-mode:lr-tb;direction:ltr;text-anchor:start;fill:#60c3aa;fill-opacity:1;stroke-width:0.324;stroke-dasharray:none;paint-order:markers stroke fill"
         x="127.56216"
         y="18.683935"
         id="text3"><tspan
           sodipodi:role="line"
           id="tspan3"
           style="font-style:normal;font-variant:normal;font-weight:normal;font-stretch:normal;font-size:13.8507px;font-family:'Adwaita Sans';-inkscape-font-specification:'Adwaita Sans, @opsz=32,wght=700';font-variant-ligatures:normal;font-variant-caps:normal;font-variant-numeric:normal;font-variant-east-asian:normal;font-variation-settings:'opsz' 32, 'wght' 700;stroke-width:0.324;stroke-dasharray:none"
           x="127.56216"
           y="18.683935">Certainty</tspan></text></g><g
       id="g8"
       transform="translate(0,-17.991672)"><g
         id="g1"
         transform="matrix(0.07028793,0,0,0.07028793,137.95637,105.56795)"><rect
           x="168.108"
           y="276.746"
           transform="matrix(-0.7071,-0.7071,0.7071,-0.7071,84.3351,689.1483)"
           style="fill:#6e6057"
           width="33.574001"
           height="100.723"
           id="rect1" /><rect
           x="182.435"
           y="282.69199"
           transform="matrix(0.7071,0.7071,-0.7071,0.7071,291.3967,-37.3875)"
           style="fill:#615349"
           width="16.787001"
           height="100.723"
           id="rect2" /><path
           style="fill:#79695a"
           d="m 196.765,315.236 v 0 c -72.115,-72.115 -72.115,-189.035 0,-261.149 v 0 c 72.114,-72.114 189.035,-72.114 261.149,0 v 0 c 72.114,72.114 72.114,189.035 0,261.149 v 0 c -72.115,72.113 -189.035,72.113 -261.149,0 z"
           id="path2-6" /><path
           style="fill:#6c5b52"
           d="m 457.914,315.236 v 0 c 72.115,-72.115 72.115,-189.034 0,-261.149 L 196.765,315.236 c 72.115,72.115 189.035,72.113 261.149,0 z"
           id="path3-3" /><path
           style="fill:#dbe1f1"
           d="m 220.505,291.495 v 0 c -59.003,-59.003 -59.003,-154.665 0,-213.668 v 0 c 59.003,-59.003 154.665,-59.003 213.668,0 v 0 c 59.003,59.003 59.003,154.665 0,213.668 v 0 c -59.003,59.002 -154.665,59.002 -213.668,0 z"
           id="path4" /><path
           style="fill:#d0d5e5"
           d="m 434.173,291.495 c 59.003,-59.003 59.003,-154.665 0,-213.668 L 220.505,291.495 c 59.003,59.002 154.665,59.002 213.668,0 z"
           id="path5" /><path
           style="fill:#fec656;fill-opacity:1"
           d="m 14.751,497.248 v 0 c -19.668,-19.668 -19.668,-51.555 0,-71.223 L 125.542,315.234 c 6.556,-6.556 17.185,-6.556 23.741,0 l 47.481,47.481 c 6.556,6.556 6.556,17.185 0,23.741 L 85.974,497.248 c -19.668,19.668 -51.555,19.668 -71.223,0 z"
           id="path8" /><path
           style="fill:#c09745;fill-opacity:1"
           d="M 196.765,362.717 173.024,338.976 14.751,497.248 c 19.668,19.668 51.555,19.668 71.223,0 L 196.765,386.457 c 6.556,-6.555 6.555,-17.184 0,-23.74 z"
           id="path9" /></g><text
         xml:space="preserve"
         style="font-size:13.8507px;line-height:normal;font-family:'Adwaita Sans';-inkscape-font-specification:'Adwaita Sans, @opsz=32';font-variation-settings:'opsz' 32;text-align:start;text-decoration-color:#000000;writing-mode:lr-tb;direction:ltr;text-anchor:start;fill:#fec656;fill-opacity:1;stroke-width:0.324;stroke-dasharray:none;paint-order:markers stroke fill"
         x="112.20743"
         y="99.292465"
         id="text3-7"><tspan
           sodipodi:role="line"
           id="tspan3-4"
           style="font-style:normal;font-variant:normal;font-weight:normal;font-stretch:normal;font-size:13.8507px;font-family:'Adwaita Sans';-inkscape-font-specification:'Adwaita Sans, @opsz=32,wght=700';font-variant-ligatures:normal;font-variant-caps:normal;font-variant-numeric:normal;font-variant-east-asian:normal;font-variation-settings:'opsz' 32, 'wght' 700;fill:#fec656;fill-opacity:1;stroke-width:0.324;stroke-dasharray:none"
           x="112.20743"
           y="99.292465">Explainability</tspan></text></g><g
       id="Security21"
       transform="matrix(1.1863943,0,0,1.1863943,130.37645,21.323704)" /><path
       style="font-variation-settings:'opsz' 32, 'wght' 700;fill:#f16d6e;fill-opacity:1;stroke-width:0.324001;stroke-dasharray:none;paint-order:markers stroke fill"
       d="M 56.346388,74.522644 102.51408,60.70869"
       id="path11"
       inkscape:path-effect="#path-effect12"
       inkscape:original-d="M 56.346388,74.522644 C 71.250918,70.160342 86.882495,65.434516 102.51408,60.70869"
       transform="translate(0,-3.7041668)" /><path
       style="font-variation-settings:'opsz' 32, 'wght' 700;fill:none;fill-opacity:1;stroke:#60c3aa;stroke-width:1.26962;stroke-dasharray:none;stroke-opacity:1;marker-end:url(#Triangle);paint-order:markers stroke fill"
       d="m 56.22001,70.81702 c 14.880149,0 31.451226,-6.306641 41.596782,-17.23815 C 107.96235,42.64736 127.57709,40.124704 136.03172,40.124704"
       id="path15" /><path
       style="font-variation-settings:'opsz' 32, 'wght' 700;fill:none;fill-opacity:1;stroke:#fec656;stroke-width:1.26962;stroke-dasharray:none;stroke-opacity:1;marker-end:url(#Triangle-1);paint-order:markers stroke fill"
       d="m 56.22001,71.777036 c 14.880149,0 31.451226,6.306641 41.596782,17.23815 10.145558,10.931507 29.760298,13.454174 38.214928,13.454174"
       id="path15-2" /></g></svg>
