<?xml version="1.0" encoding="UTF-8" standalone="no"?>
<svg
   width="1022.76"
   height="761.09"
   viewBox="0 0 1022.76 761.09"
   role="img"
   artist="Katerina Limpitsouni"
   source="https://undraw.co/"
   version="1.1"
   id="svg193"
   sodipodi:docname="undraw_drone-race_gddk.svg"
   inkscape:version="1.4.2 (ebf0e940d0, 2025-05-08)"
   xmlns:inkscape="http://www.inkscape.org/namespaces/inkscape"
   xmlns:sodipodi="http://sodipodi.sourceforge.net/DTD/sodipodi-0.dtd"
   xmlns:xlink="http://www.w3.org/1999/xlink"
   xmlns="http://www.w3.org/2000/svg"
   xmlns:svg="http://www.w3.org/2000/svg">
  <sodipodi:namedview
     id="namedview193"
     pagecolor="#ffffff"
     bordercolor="#999999"
     borderopacity="1"
     inkscape:showpageshadow="2"
     inkscape:pageopacity="0"
     inkscape:pagecheckerboard="0"
     inkscape:deskcolor="#d1d1d1"
     inkscape:zoom="0.7732331"
     inkscape:cx="456.52469"
     inkscape:cy="477.86366"
     inkscape:window-width="2560"
     inkscape:window-height="1364"
     inkscape:window-x="0"
     inkscape:window-y="0"
     inkscape:window-maximized="1"
     inkscape:current-layer="g194" />
  <defs
     id="defs3">
    <linearGradient
       id="38c5ff3f-db05-4f92-8a6f-086685ba9c9d-5240"
       x1="616.05"
       y1="543.92"
       x2="616.05"
       y2="426.21"
       gradientUnits="userSpaceOnUse">
      <stop
         offset="0"
         stop-color="gray"
         stop-opacity="0.25"
         id="stop1" />
      <stop
         offset="0.54"
         stop-color="gray"
         stop-opacity="0.12"
         id="stop2" />
      <stop
         offset="1"
         stop-color="gray"
         stop-opacity="0.1"
         id="stop3" />
    </linearGradient>
    <linearGradient
       id="d1f964e4-7a11-4c78-9425-52929bb6ec0d-5241"
       x1="404.29"
       y1="575"
       x2="404.29"
       y2="496.58"
       xlink:href="#38c5ff3f-db05-4f92-8a6f-086685ba9c9d-5240" />
    <linearGradient
       id="c7b73675-bc95-44f5-97b0-c0fe549cbce6-5242"
       x1="222.33"
       y1="432.82"
       x2="222.33"
       y2="379.12"
       xlink:href="#38c5ff3f-db05-4f92-8a6f-086685ba9c9d-5240" />
    <linearGradient
       id="cb0b0333-972d-4408-951f-fe365bd5068b-5243"
       x1="533.77"
       y1="346.42"
       x2="533.77"
       y2="316.03"
       xlink:href="#38c5ff3f-db05-4f92-8a6f-086685ba9c9d-5240" />
    <linearGradient
       id="815b14a8-3689-497c-8dbf-b96958abdfcd-5244"
       x1="398.54"
       y1="299.67"
       x2="398.54"
       y2="275.44"
       xlink:href="#38c5ff3f-db05-4f92-8a6f-086685ba9c9d-5240" />
    <linearGradient
       id="dca9cf71-4016-436a-be98-97dc23eb33e8-5245"
       x1="367.05"
       y1="437.96"
       x2="367.05"
       y2="395.77"
       xlink:href="#38c5ff3f-db05-4f92-8a6f-086685ba9c9d-5240" />
    <linearGradient
       id="f35753ff-5fb5-4999-ad45-77240b6c4c3b-5246"
       x1="2606.45"
       y1="160.59"
       x2="2848.25"
       y2="160.59"
       gradientTransform="matrix(-1,0,0,1,4098.3602,-157.25015)"
       xlink:href="#38c5ff3f-db05-4f92-8a6f-086685ba9c9d-5240" />
    <linearGradient
       id="22e285cb-60a0-4895-a0bb-405ded457db7-5247"
       x1="2483.29"
       y1="816.51"
       x2="2483.29"
       y2="211.49"
       gradientTransform="matrix(-1,0,0,1,4098.3602,-157.25015)"
       xlink:href="#38c5ff3f-db05-4f92-8a6f-086685ba9c9d-5240" />
  </defs>
  <title
     id="title3">drone_race</title>
  <path
     d="M263.42,180.38c-5.48,5.72-7.59,13.78-9.95,21.35-19,61-65.82,110.07-119.14,145.13-22.58,14.85-50.07,34.76-45.13,61.37,2.66,14.3,14.33,24.82,23,36.46a99.86,99.86,0,0,1,15.42,86.7c-9.86,33.21-37.42,64.19-28.89,97.77,5.26,20.7,23.12,35.38,40.29,48q40.18,29.57,82.92,55.39c19.1,11.54,39.42,22.77,61.68,24.23,19.6,1.29,38.8-5.12,57.41-11.46,16.26-5.53,32.93-11.3,46.06-22.39,8.57-7.24,15.4-16.58,24.92-22.51,22.36-13.92,51.08-5.1,76.72.83a306.77,306.77,0,0,0,182.82-14.42c88.31-35.74,155.62-110.79,242-151.06,37.14-17.32,77.54-28.07,111.93-50.37a193.89,193.89,0,0,0,49.2-45.85c26-34.55,40.06-78.59,36-121.69s-26.81-84.65-62.54-109c-38.25-26-86.56-30.91-130.08-46.56-44.94-16.15-84.92-43.93-129.43-61.25C715.86,72.77,632,74.41,560.35,105.54c-48.44,21.06-97.54,70.29-151.49,74C370.42,182.17,293.43,149,263.42,180.38Z"
     transform="translate(-88.62 -69.46)"
     fill="#60c3aa"
     opacity="0.1"
     id="path3" />
  <g
     id="g194"
     transform="matrix(0.5887003,0,0,0.5887003,186.92884,590.29208)">
    <rect
       x="711.94373"
       y="-197.08339"
       width="21.48737"
       height="71.079178"
       fill="#d6d6e3"
       id="rect1" />
    <polygon
       points="850.4434,432.21859 832.02565,444.49709 825.8864,462.91484 1062.2475,545.79469 1071.4563,512.02882 "
       fill="#d6d6e3"
       id="polygon1"
       transform="translate(-261.28455,-712.18177)" />
    <polygon
       points="1071.4563,512.02882 1140.5229,19.35414 916.44032,65.3985 832.02565,444.49709 "
       fill="#f2f2f2"
       id="polygon2"
       transform="translate(-261.28455,-712.18177)" />
    <path
       d="m 867.12145,-681.20708 -218.0038,43.02707 c -5.2824,1.04258 -10.0015,-3.46626 -9.2007,-8.79067 l 1.016,-6.75511 c 0.4827,-3.2092 2.9065,-5.78177 6.0813,-6.45447 l 220.4686,-46.71426 c 5.883,-1.24653 10.8959,4.36714 8.9942,10.07218 l -3.4807,10.4423 c -0.8852,2.65555 -3.1286,4.63095 -5.8749,5.17297 z"
       fill="#d6d6e3"
       id="path2" />
    <rect
       x="517.97528"
       y="646.26099"
       width="2.6254599"
       height="111.82937"
       transform="rotate(-89.93103)"
       fill="#60c3aa"
       id="rect2"
       style="fill:#f16d6e;fill-opacity:1" />
    <rect
       x="761.86334"
       y="-494.15231"
       width="95.516502"
       height="2.62673"
       transform="rotate(-5.93875)"
       fill="#60c3aa"
       id="rect3"
       style="fill:#f16d6e;fill-opacity:1" />
    <path
       d="m 411.08265,-455.87498 -33.4641,114.39221 c -4.4438,15.1903 6.1194,30.649 21.8861,32.0291 l 36.5166,3.1964 z"
       fill="#60c3aa"
       id="path3-6"
       style="fill:#f16d6e;fill-opacity:1" />
    <path
       d="m 411.08381,-455.84956 -33.4641,114.39221 c -4.4438,15.1903 6.1194,30.649 21.8861,32.0291 l 36.5166,3.1964 z"
       opacity="0.1"
       id="path4" />
    <path
       d="m 674.45275,-507.31109 v -11.82559 c 0,0 79.7629,-5.14411 88.3883,-2.36035 0,0 3.5363,5.9913 -14.3983,6.94742 0,0 -55.8084,8.40114 -73.99,7.23852 z"
       fill="#090814"
       id="path5" />
    <path
       d="m 714.81895,-476.97807 -44.7621,74.02835 -21.0759,-26.70153 41.1903,-64.48896 c -1.4634,-7.50275 0.3085,-16.21123 5.545,-23.73168 9.1625,-13.15884 25.4182,-17.6791 36.3082,-10.09637 10.8901,7.58277 12.2906,24.39693 3.1281,37.55581 -5.2365,7.5205 -12.7894,12.20361 -20.3336,13.43439 z"
       fill="#ffb6b6"
       id="path6" />
    <path
       d="m 435.75335,-297.51947 -5.3753,18.2817 0.1823,18.5374 c 0,0 -35.3549,42.5233 -22.3299,134.4989 l 165.6569,-2.0772 -19.7334,-148.0007 z"
       fill="#090814"
       id="path7" />
    <path
       d="m 454.39945,-550.85739 c 0,-25.94513 21.0327,-46.97786 46.978,-46.97786 25.9453,0 46.978,21.03273 46.978,46.97786 0,21.04151 -13.8348,38.84968 -32.9034,44.8305 l -7.0039,5.6432 12.5743,44.01039 -14.652,10.3652 -46.2974,-38.58095 c 0,0 10.0017,-12.73938 15.3654,-27.10412 -12.6771,-8.41306 -21.039,-22.80939 -21.039,-39.16422 z"
       fill="#ffb6b6"
       id="path8" />
    <path
       d="m 680.85535,-479.32792 c -16.5858,-0.25287 -47.2461,52.9735 -47.2461,52.9735 l -25.186,-8.90706 -51.7992,-18.33813 -39.6986,-16.33923 0.1746,1.19992 c -0.1564,-0.37626 -0.3262,-0.75636 -0.5133,-1.13998 -4.1735,-8.59971 -16.2967,-18.71759 -50.7151,-16.71228 l -16.2065,12.79173 -2.2042,1.75244 c 0,0 -10.2262,-0.88519 -20.4161,3.1799 -7.3715,2.96325 -14.743,8.49235 -18.23,18.82624 -1.8067,5.33039 -1.8067,16.35109 -0.7227,30.35331 3.9207,50.69709 22.1933,158.47249 22.1933,158.47249 l 115.3536,-15.2704 8.5098,0.199 c 0,0 1.0118,-11.6171 1.9151,-26.8302 0.5602,-8.9253 1.066,-19.0614 1.3551,-28.8175 0.1987,-7.1546 0.253,-14.0926 0.1265,-20.1992 -0.018,-0.3798 -0.018,-0.7592 -0.036,-1.1387 -0.3434,-11.1473 -1.4635,-19.2233 -3.8665,-20.1085 0,0 7.4619,-0.199 18.23,-0.5964 26.0171,-0.9756 71.3662,-3.162 77.8343,-6.6848 9.1421,-4.9686 57.0749,-71.65523 57.0749,-71.65523 0,0 -9.3228,-26.73978 -25.9267,-27.01091 z"
       fill="#60c3aa"
       id="path9"
       style="fill:#f16d6e;fill-opacity:1" />
    <path
       d="m 549.74365,-547.38979 c -3.5487,-17.36143 -5.2509,-26.25456 -18.15,-38.53589 -3.0615,0.43331 0.8082,16.30819 -16.0672,38.42177 -24.5315,32.14604 -22.0861,2.67198 -29.3403,12.5744 -1.5748,2.14973 -1.9147,9.90604 -1.3972,12.5744 2.045,10.54362 14.1469,0.24845 1.3972,36.32604 -1.8969,2.80599 -4.1333,2.12381 -6.9858,2.09573 -0.2208,-0.002 1.2261,-0.27845 -4.1915,-1.39716 -2.5857,-0.53396 -6.205,-1.16464 -10.5437,-1.89557 -50.4028,-8.49128 -68.2001,-72.08937 -29.2417,-105.17688 8.8638,-7.52809 17.5627,-13.23351 25.1153,-15.87722 22.748,-7.96262 74.5774,-2.78703 84.5279,23.05306 4.7466,12.32614 6.332,24.95607 4.877,37.83731 z"
       fill="#010102"
       id="path10" />
    <circle
       cx="445.9342"
       cy="-481.24896"
       r="35.948071"
       fill="#010102"
       id="circle10" />
    <rect
       x="40.193974"
       y="124.55238"
       width="21.48737"
       height="77.642822"
       transform="scale(-1)"
       fill="#d6d6e3"
       id="rect10" />
    <polygon
       points="343.87552,427.10668 362.29327,439.38518 368.43252,457.80292 132.07145,540.68278 122.86258,506.91691 "
       fill="#d6d6e3"
       id="polygon10"
       transform="translate(-261.28455,-712.18177)" />
    <polygon
       points="122.86258,506.91691 53.79604,14.24223 277.8786,60.28659 362.29327,439.38518 "
       fill="#f2f2f2"
       id="polygon11"
       transform="translate(-261.28455,-712.18177)" />
    <path
       d="m -195.37167,-686.31899 218.003821,43.02707 c 5.2824,1.04258 10.0016,-3.46626 9.2008,-8.79067 l -1.016,-6.75511 c -0.4827,-3.2092 -2.9066,-5.78177 -6.0814,-6.45447 l -220.468571,-46.71427 c -5.88303,-1.24653 -10.89591,4.36714 -8.99423,10.07218 l 3.48077,10.4423 c 0.88518,2.65555 3.1286,4.63095 5.87482,5.17297 z"
       fill="#d6d6e3"
       id="path11" />
    <path
       d="m -27.494449,-551.61769 c -5.9887,0 -11.9921,-2.5229 -17.259,-7.32641 -6.3624,-5.80087 -10.9006,-14.2631 -12.7793,-23.82781 -3.9061,-19.88706 5.0509,-38.44985 19.9666,-41.38041 7.3007,-1.43323 14.8848,1.02557 21.3555,6.92772 6.3623999,5.80087 10.9004999,14.2631 12.7791999,23.82781 3.90619999,19.88706 -5.0509,38.44985 -19.9664999,41.38041 -1.3589,0.26665 -2.7274,0.39869 -4.0965,0.39869 z m -5.9913,-70.3053 c -1.1967,0 -2.3902,0.11409 -3.5741,0.34741 -13.4958,2.65109 -21.5235,19.83065 -17.8961,38.29858 1.7703,9.01475 6.022,16.96803 11.9716,22.39329 5.8412,5.32655 12.6138,7.56613 19.08,6.29058 13.4958,-2.65109 21.5234999,-19.83065 17.8961999,-38.29858 v 0 c -1.7704,-9.01475 -6.0219999,-16.96803 -11.9715999,-22.39329 -4.7715,-4.35097 -10.1672,-6.63799 -15.506,-6.63799 z"
       fill="#60c3aa"
       id="path12" />
    <rect
       x="570.61536"
       y="-142.47728"
       width="2.6252899"
       height="28.65958"
       transform="rotate(-78.97581)"
       fill="#60c3aa"
       id="rect12" />
    <path
       d="m 82.412551,-571.89388 v -11.82559 c 0,0 -79.7629001,-5.14411 -88.3883001,-2.36035 0,0 -3.5362,5.9913 14.3984,6.94742 0,0 55.8083001,8.40114 73.9899001,7.23852 z"
       fill="#090814"
       id="path13" />
    <path
       d="m 66.795251,-568.69863 50.684399,76.42862 -35.137599,8.10891 -43.1585,-68.68505 c -7.8541,-1.99507 -15.3986,-7.63721 -20.2355,-16.06204 -8.4633,-14.7413 -5.4343,-32.36923 6.7654,-39.37336 12.1997,-7.00408 28.9501,-0.73196 37.4134,14.00939 4.8369,8.42488 5.9052,17.78509 3.6684,25.57352 z"
       fill="#ffb6b6"
       id="path14" />
    <path
       d="m 318.59095,-557.31421 c 0,-33.53694 -27.1871,-60.72406 -60.7242,-60.72406 -33.5372,0 -60.7243,27.18712 -60.7243,60.72406 0,27.19846 17.883,50.21749 42.5313,57.94835 l 9.0534,7.29446 -16.2538,56.88827 18.9394,13.39816 59.8444,-49.87013 c 0,0 -12.9283,-16.46705 -19.8614,-35.03506 16.3865,-10.8748 27.1952,-29.48364 27.1952,-50.62406 z"
       fill="#ffb6b6"
       id="path15" />
    <path
       d="m 146.97735,-238.26477 71.4329,-57.5116 11.3123,34.2408 -64.4158,49.3042 c -1.2628,8.0045 -6.1857,16.0368 -14.129,21.6295 -13.8987,9.7857 -31.7307,8.394 -39.8292,-3.1083 -8.0985,-11.5024 -3.3966,-28.7596 10.5021,-38.5453 7.9433,-5.5926 17.1653,-7.5189 25.1267,-6.0093 z"
       fill="#ffb6b6"
       id="path16" />
    <polygon
       points="592.52095,387.87513 592.59035,388.1617 431.08784,501.70819 408.07777,459.75513 485.63178,380.8827 "
       fill="#60c3aa"
       id="polygon16"
       transform="translate(-261.28455,-712.18177)" />
    <polygon
       points="592.52095,387.87513 592.59035,388.1617 431.08784,501.70819 408.07777,459.75513 485.63178,380.8827 "
       opacity="0.1"
       id="polygon17"
       transform="translate(-261.28455,-712.18177)" />
    <polygon
       points="467.11672,584.8649 613.08095,584.8649 597.4165,477.47044 464.46804,508.72668 "
       fill="#090814"
       id="polygon18"
       transform="translate(-261.28455,-712.18177)" />
    <path
       d="m 297.54365,-493.84701 c 0,0 -24.3596,4.42347 -50.5114,20.08756 -26.1519,15.66409 -46.3609,85.47781 -46.3609,85.47781 0,0 -21.5107,165.16347 2.1732,184.35677 l 133.2874,-30.7865 c 0,0 17.3604,-13.5614 24.5789,-60.6347 6.934,-45.2183 -20.2714,-201.97525 -63.1672,-198.50094 z"
       fill="#60c3aa"
       id="path18" />
    <path
       d="m 277.54545,-457.84178 -96.4326,-7.22502 -102.138699,-82.21807 c 0,0 -42.4733,19.18847 -38.3926,29.33772 4.0808,10.14925 51.4316,95.25705 51.4316,95.25705 0,0 140.333099,51.84133 157.192199,53.96693 16.8591,2.1256 28.3401,-89.11863 28.3401,-89.11863 z"
       fill="#60c3aa"
       id="path19" />
    <path
       d="m 281.07845,-512.51422 18.7244,1.72317 c 0.6606,3.76194 25.2707,-28.35811 25.9071,-48.26515 0.1493,-4.66954 3.9823,-59.00851 -48.1645,-71.65127 -52.1467,-12.64275 -93.4169,26.1361 -83.513,31.59794 9.9039,5.46183 37.0753,9.17572 37.0753,9.17572 0,0 -20.321,33.17 5.0586,44.09773 0,0 1.0425,16.3409 8.6927,17.02312 7.6502,0.68222 27.8559,-10.70156 31.8731,2.89755 l 4.0172,13.59911"
       fill="#090814"
       id="path20" />
    <rect
       x="-54.153915"
       y="-454.04327"
       width="109.2807"
       height="2.6257"
       transform="rotate(-5.12605)"
       fill="#60c3aa"
       id="rect20" />
    <path
       d="m 894.71535,-121.04357 h -1153.149 c -1.69894,-0.1299 -2.95421,-1.607 -2.84419,-3.3059 -0.11002,-1.6809 1.14525,-3.158 2.84419,-3.2879 h 1153.149 c 1.4969,0.1839 2.6782,1.3671 2.8622,2.8622 0.2399,1.8288 -1.0334,3.4899 -2.8622,3.7316 z"
       fill="#cccccc"
       id="path21" />
    <g
       id="g193"
       transform="matrix(1.6986572,0,0,1.6986572,-1734.9082,-851.47314)">
      <ellipse
         cx="1612.7202"
         cy="636.63983"
         rx="243.25999"
         ry="36.66"
         fill="#60c3aa"
         opacity="0.1"
         id="ellipse125" />
      <path
         d="m 1256.5802,7.9298484 c -2.83,-4.62 -7.06,-8.84999996 -6.4,-14.09 7.76,0.89 15.12,-1 22.23,-4.2800004 7.11,-3.28 13.71,-7.57 20.36,-11.76 2.62,-1.65 5.23,-3.27 7.83,-4.77 4.12,-2.37 8.21,-5 12.4,-7.31 6,-3.3 12.13,-6 18.86,-6.52 1.21,-0.09 2.44,-0.11 3.67,-0.09 8.3,0.17 16.9,2.39 24.2,-1.33 l 0.45,-0.24 c 4.13,-2.27 7.15,-6.14 10.7,-9.26 a 47.71,47.71 0 0 1 8.29,-5.76 c 5.38,-3 11.22,-5.4 16.74,-8.23 a 26.31,26.31 0 0 0 4,-2.57 l 0.94,-0.75 0.21,-0.18 0.68,-0.58 0.43,-0.38 0.44,-0.4 0.34,-0.32 0.55,-0.52 0.06,-0.06 0.88,-0.87 0.35,-0.35 0.61,-0.62 0.36,-0.37 1.84,-1.89 c 0.72,-0.73 1.46,-1.45 2.22,-2.15 v 0 l 0.72,-0.64 0.21,-0.18 0.58,-0.49 0.28,-0.23 0.57,-0.44 0.28,-0.22 0.86,-0.62 a 6.06,6.06 0 0 1 0.84,-0.48 l -1.8,-4.56 5.38,-2.22 74.19,180.05 -5.38,2.22 -42.45,-102.9999996 -0.3,0.3 a 85.29,85.29 0 0 1 -35.09,20.8799996 h -0.08 c -7.39,2.23 -15.66,3.81 -21.88,8 a 21,21 0 0 0 -5.65,5.41 c -1.46,2.08 -2.48,4.45 -4.05,6.45 -0.29,0.37 -0.61,0.73 -0.93,1.07 a 34.73,34.73 0 0 1 -6,4.75 l -1,0.65 a 194.5,194.5 0 0 1 -20.1,12.4 79.13,79.13 0 0 1 -12.49,5.2 c -3.13,1 -6.36,1.73 -9.49,2.72 a 36.87,36.87 0 0 0 -6.12,2.46 c -5.3,2.77 -9.37,7.11 -13.22,11.74 -3.37,4.06 -6.57,8.35 -10.27,12.05 -2.31,2.31 -5.84,4.48 -8.65,3.13 a 4.82,4.82 0 0 1 -0.56,-0.33 c 0.08,-0.15 0.16,-0.3 0.23,-0.46 2.21,-4.63 -0.51,-10.35 -4.17,-14.07 -0.38,-0.38 -0.77,-0.76 -1.17,-1.13 -0.4,-0.37 -1.11,-1 -1.69,-1.5 -3.13,-2.69 -6.46,-5.19 -8.63,-8.66 a 28.41,28.41 0 0 1 -3.32,-9.41 c -1,-4.71 -1.66,-9.56 -4.22,-13.57 -1.69,-2.65 -4.18,-4.91 -6,-7.45 a 11.26,11.26 0 0 1 -2.2,-5.13 c -0.41,-3.26 1.1,-6.44 1.67,-9.68 a 12,12 0 0 0 0.2,-2.68 14.15,14.15 0 0 0 -2.34,-6.6799996 z"
         fill="url(#f35753ff-5fb5-4999-ad45-77240b6c4c3b-5246)"
         id="path160"
         style="fill:url(#f35753ff-5fb5-4999-ad45-77240b6c4c3b-5246)" />
      <rect
         x="-1342.8759"
         y="-651.73462"
         width="5.73"
         height="191.47"
         transform="rotate(157.6)"
         fill="#d6d8e1"
         id="rect160" />
      <path
         d="m 1267.0502,38.939848 c 2.52,3.94 3.18,8.71 4.15,13.34 a 27.93,27.93 0 0 0 3.27,9.25 c 2.14,3.41 5.41,5.88 8.48,8.52 0.56,0.48 1.12,1 1.66,1.47 0.54,0.47 0.78,0.73 1.15,1.11 3.6,3.65 6.27,9.27 4.1,13.83 -0.07,0.15 -0.14,0.3 -0.23,0.45 a 4.74,4.74 0 0 0 0.55,0.32 c 2.76,1.33 6.23,-0.81 8.5,-3.08 3.64,-3.64 6.79,-7.86 10.1,-11.85 3.78,-4.56 7.79,-8.82 13,-11.55 a 36.25,36.25 0 0 1 6,-2.42 c 3.07,-1 6.25,-1.71 9.33,-2.68 a 77.8,77.8 0 0 0 12.29,-5.11 191.24,191.24 0 0 0 19.76,-12.19 l 0.94,-0.64 a 34.15,34.15 0 0 0 5.9,-4.67 c 0.32,-0.34 0.63,-0.69 0.91,-1.05 1.54,-2 2.55,-4.3 4,-6.34 a 20.67,20.67 0 0 1 5.56,-5.32 c 6.12,-4.07 14.24,-5.63 21.51,-7.82 h 0.08 a 83.86,83.86 0 0 0 34.5,-20.5299996 5.57,5.57 0 0 0 1.73,-2.5400004 c 0.31,-1.41 -0.45,-2.8 -1.18,-4 q -1.28,-2.18 -2.49,-4.4 a 196.66,196.66 0 0 1 -9.87,-20.74 c -0.63,-1.55 -1.24,-3.11 -1.83,-4.68 q -2.27,-6 -4.14,-12.17 c -0.41,-1.37 -0.81,-2.73 -1.19,-4.11 -0.07,-0.26 -0.14,-0.54 -0.22,-0.84 -1.66,-6.75 -3.88,-22.32 -10.71,-17.65 a 38.7,38.7 0 0 0 -5.65,4.9 c -1.33,1.35 -2.63,2.74 -4,4.08 a 39.53,39.53 0 0 1 -3.53,3.09 25.88,25.88 0 0 1 -4,2.52 c -5.42,2.78 -11.17,5.11 -16.46,8.09 a 46.92,46.92 0 0 0 -8.15,5.66 c -3.49,3.08 -6.46,6.88 -10.52,9.11 l -0.45,0.23 c -7.18,3.66 -15.63,1.47 -23.79,1.3 -1.21,0 -2.42,0 -3.61,0.09 -6.62,0.51 -12.68,3.17 -18.54,6.41 -4.12,2.28 -8.14,4.86 -12.19,7.19 -2.56,1.47 -5.12,3.06 -7.7,4.69 -6.55,4.12 -13.17,8.45 -20,11.56 -6.83,3.1100004 -14.23,5.0900004 -21.86,4.2100004 -0.65,5.15000004 3.51,9.31 6.29,13.86 a 13.91,13.91 0 0 1 2.35,6.5599996 11.74,11.74 0 0 1 -0.2,2.63 c -0.56,3.19 -2,6.31 -1.64,9.52 a 11.07,11.07 0 0 0 2.16,5 c 1.77,2.56 4.19,4.79 5.88,7.39 z"
         fill="#e6e8ed"
         id="path161" />
      <path
         d="m 1399.4602,-67.070152 5.58,13.25 18.32,-7.72 c -1.65,-6.71 -3.87,-22.28 -10.7,-17.61 -4.95,3.38 -8.3,8.32 -13.2,12.08 z"
         fill="#5a5773"
         id="path162" />
      <path
         d="m 1360.3602,-41.690152 2.38,5.66 21.14,-8.9 -4.86,-11.54 a 46.92,46.92 0 0 0 -8.15,5.66 c -3.51,3.09 -6.44,6.89 -10.51,9.12 z"
         fill="#5a5773"
         id="path163" />
      <path
         d="m 1313.9802,-33.650152 6.49,15.4 21.14,-8.9 -5.48,-13 c -1.21,0 -2.42,0 -3.61,0.09 -6.62,0.5 -12.68,3.16 -18.54,6.41 z"
         fill="#5a5773"
         id="path164" />
      <path
         d="m 1274.0602,-10.250152 4.12,9.78000044 21.14,-8.90000004 -5.24,-12.4400004 c -6.54,4.16 -13.17,8.48 -20.02,11.56 z"
         fill="#5a5773"
         id="path165" />
      <rect
         x="-1315.9475"
         y="-518.20862"
         width="22.940001"
         height="22.940001"
         transform="rotate(157.18)"
         fill="#5a5773"
         id="rect165" />
      <rect
         x="-1270.0734"
         y="-518.20844"
         width="22.940001"
         height="22.940001"
         transform="rotate(157.18)"
         fill="#5a5773"
         id="rect166" />
      <rect
         x="-1224.1991"
         y="-518.21832"
         width="22.940001"
         height="22.940001"
         transform="rotate(157.18)"
         fill="#5a5773"
         id="rect167" />
      <path
         d="m 1260.6502,17.049848 5.29,12.56 21.14,-8.9 -8.9,-21.13999956 -19.68,8.27999996 a 13.91,13.91 0 0 1 2.35,6.5599996 11.74,11.74 0 0 1 -0.2,2.64 z"
         fill="#5a5773"
         id="path167" />
      <path
         d="m 1413.9402,-32.680152 8.9,21.14 17.78,-7.48 a 196.66,196.66 0 0 1 -9.87,-20.74 z"
         fill="#5a5773"
         id="path168" />
      <rect
         x="-1293.0154"
         y="-541.15063"
         width="22.940001"
         height="22.940001"
         transform="rotate(157.18)"
         fill="#5a5773"
         id="rect168" />
      <rect
         x="-1247.1311"
         y="-541.15051"
         width="22.940001"
         height="22.940001"
         transform="rotate(157.18)"
         fill="#5a5773"
         id="rect169" />
      <rect
         x="-1201.2529"
         y="-541.16956"
         width="22.940001"
         height="22.940001"
         transform="rotate(157.18)"
         fill="#5a5773"
         id="rect170" />
      <path
         d="m 1401.6902,-2.6401516 6.37,15.1299996 a 83.86,83.86 0 0 0 20.84,-9.6199996 l -6.07,-14.4200004 z"
         fill="#5a5773"
         id="path170" />
      <path
         d="m 1359.3602,15.159848 8.9,21.14 7.71,-3.25 c 0.32,-0.34 0.63,-0.69 0.91,-1.05 1.54,-2 2.55,-4.3 4,-6.34 a 20.67,20.67 0 0 1 5.56,-5.32 l -5.92,-14.0799996 z"
         fill="#5a5773"
         id="path171" />
      <rect
         x="-1224.2081"
         y="-564.09644"
         width="22.940001"
         height="22.940001"
         transform="rotate(157.18)"
         fill="#5a5773"
         id="rect171" />
      <path
         d="m 1274.8302,50.749848 8.12,19.3 c 0.56,0.48 1.12,1 1.66,1.47 l 20.26,-8.53 -8.9,-21.14 z"
         fill="#5a5773"
         id="path172" />
      <path
         d="m 1271.2002,52.279848 3.63,-1.53 -8.9,-21.14 -4.77,2 c 1.77,2.5 4.22,4.72 5.88,7.32 2.53,3.95 3.19,8.72 4.16,13.35 z"
         fill="#5a5773"
         id="path173" />
      <path
         d="m 1347.1602,45.199848 2.25,5.36 a 191.24,191.24 0 0 0 19.76,-12.19 l -0.87,-2.07 z"
         fill="#5a5773"
         id="path174" />
      <path
         d="m 1304.8802,62.999848 3.92,9.31 c 3.78,-4.56 7.79,-8.82 13,-11.55 a 36.25,36.25 0 0 1 6,-2.42 l -1.79,-4.24 z"
         fill="#5a5773"
         id="path175" />
      <path
         d="m 1476.8702,95.119848 5.43,58.110002 c 0,0 6.41,12.11 13.81,16 5.07,2.65 15,11 20.73,16 l 1.26,1.1 c -0.51,1.43 -0.78,2.31 -0.78,2.31 0,0 19.73,38.74 32.06,44.55 12.33,5.81 3.95,54.72 4.44,77.48 0.34,15.9 5.74,24.7 11.66,29.06 -0.21,0.32 -0.42,0.65 -0.62,1 -8.76,14.57 -12.29,46.41 -8.57,61 a 9,9 0 0 0 0.76,2 c -2.19,12 -4.37,31.45 2.2,40.16 9.87,13.07 21.21,66.34 21.21,66.34 0,0 7.4,37.29 12.82,43.58 3.94,4.57 3.72,44.81 3.3,66.56 a 78.1,78.1 0 0 1 -8.73,-0.7 c -23.49,-3.13 -2.64,11.09 6.28,16.7 -4,2.56 -11.31,4.5 -25,2.67 -18.79,-2.5 -9.2,6.1 0,12.51 a 36.6,36.6 0 0 0 20.23,6.45 l 68,1.26 a 106,106 0 0 0 0.69,-19.7 l 18,0.33 c 0,0 2.15,-15.61 -0.16,-25.49 l 1.15,-0.18 -8.88,-69.25 c 0,0 -0.49,-63.92 1,-67.79 4.47,-11.7 2,-30.28 -1,-44.23 a 91.39,91.39 0 0 1 -0.73,-35.21 c 5.17,-29 -2.37,-51.5 -7.5,-62.58 -0.24,-0.52 -0.47,-1 -0.7,-1.47 3.08,0.06 5,0.16 5,0.16 -9.37,-6.78 1,-69.25 10.36,-82.32 9.36,-13.07 30.66,-5.78 30.66,-5.78 a 38.43,38.43 0 0 0 5.34,-5.33 h 1.05 c 7.68,0.21 18.44,0.25 29.61,-0.51 21.21,-1.45 16.28,-16 16.28,-16 l -8.38,-57.16 c 0,0 -21.21,-47.94 -27.13,-33.9 -5.92,14.04 10.85,36.32 10.85,36.32 0,0 7.4,37.77 0,43.1 -4.68,3.37 -12.43,1.24 -17.5,-0.77 -1.59,-0.63 -2.92,-1.25 -3.8,-1.69 l -1.16,-0.6 v 0 c -8,-4 -28.48,-11.55 -37.21,-11.94 -10.85,-0.48 -31.57,-7.26 -31.57,-7.26 -1.67,-5.75 -6.45,-9.23 -11.39,-11.34 v 0 a 106,106 0 0 1 -0.8,-15.36 7.83,7.83 0 0 0 1.79,-1.41 5.32,5.32 0 0 0 0.94,-1 c 1.51,-2.24 0.77,-5.35 2.05,-7.72 0.23,-0.42 -3.05,-3.17 -2.73,-3.52 2,-1.76 4.9,-2.72 6.62,-4.59 a 5.47,5.47 0 0 0 1.56,-2.17 c 1.35,-3.6 1.42,-4.8 1,-8.61 -0.33,-3.36 0.69,-6 0.18,-8.84 v 0 c 1.88,-1.7 2.77,-3.73 0.74,-5.75 -3.73,-3.72 -14,-4.6 -19,-4.87 -3.92,-0.22 -7.93,0 -11.67,-1.15 -4.36,-1.36 -7.9,-4.47 -11.86,-6.72 -3.96,-2.25 -9.1,-3.6 -13,-1.27 -3,1.79 -5,5.56 -8.51,5.79 -2.9,0.19 -5.76,-2.27 -8.48,-1.27 l 0.14,0.32 a 3.82,3.82 0 0 0 -0.63,0.17 37.1,37.1 0 0 0 16,18 24.74,24.74 0 0 0 -4.41,14.12 25.06,25.06 0 0 0 12,21.33 v 0 a 0.21,0.21 0 0 0 0,0.06 v 0 l 0.15,1.56 a 57.41,57.41 0 0 1 -0.46,12.72 l -0.93,1.27 c -2.28,1.12 -3.65,2 -3.65,2 a 100.05,100.05 0 0 0 -19.73,-4.36 c -9.87,-1 -33,-15 -33,-15 a 5.94,5.94 0 0 0 -1.24,0.27 l -0.7,-0.69 a 38,38 0 0 0 -18.78,-9.75 c 0,0 -1.23,-3.63 -3.95,-10.17 -1.9,-4.57 -13.81,-30 -13.81,-30 0,0 -4.93,-20.340002 -3.95,-30.510002 0.98,-10.17 -15.25,-29.53 -17.76,-27.11 -2.51,2.42 -4.4,31 2.51,40.68 z m 142.27,321.880002 0.28,0.13 c 0.69,0.4 1.33,2.58 1.94,6 v 0 c 2.12,12.1 3.73,39.81 4.75,61.72 0.19,4.16 0.36,8.11 0.51,11.7 -2.44,-11.21 -5,-23.49 -5.22,-27.18 -0.33,-4.68 -1.49,-33.17 -2.26,-52.37 z"
         fill="url(#22e285cb-60a0-4895-a0bb-405ded457db7-5247)"
         id="path176"
         style="fill:url(#22e285cb-60a0-4895-a0bb-405ded457db7-5247)" />
      <path
         d="m 1617.3602,607.87985 c 0,0 -0.48,12.9 -28.67,9.08 -28.19,-3.82 9.56,18.64 9.56,18.64 l 76,1.43 c 0,0 4.47,-33 -6.69,-33 -0.49,0.03 -50.2,3.85 -50.2,3.85 z"
         fill="#4a4347"
         id="path177" />
      <path
         d="m 1617.3602,607.87985 c 0,0 -0.48,12.9 -28.67,9.08 -28.19,-3.82 9.56,18.64 9.56,18.64 l 76,1.43 c 0,0 4.47,-33 -6.69,-33 -0.49,0.03 -50.2,3.85 -50.2,3.85 z"
         opacity="0.1"
         id="path178" />
      <path
         d="m 1558.1102,401.90985 a 9.58,9.58 0 0 0 2.27,4.15 c 11.07,12.25 54.55,8.54 58.9,11.14 0.66,0.4 1.29,2.55 1.88,6 v 0 c 2.05,11.94 3.62,39.29 4.6,60.91 0.76,16.79 1.17,30.13 1.17,30.13 l 2.43,104.64 28.14,-4.4 17.7,-2.73 -8.6,-68.34 c 0,0 -0.48,-63.08 1,-66.91 4.34,-11.57 1.92,-30 -1,-43.73 a 91.13,91.13 0 0 1 -0.71,-34.59 c 5,-28.69 -2.28,-50.89 -7.25,-61.84 a 59.79,59.79 0 0 0 -4,-7.5 c 0,0 -70.25,-1 -82.68,6.69 a 17.73,17.73 0 0 0 -5.55,6.24 c -8.47,14.33 -11.9,45.75 -8.3,60.14 z"
         fill="#5a5773"
         id="path179" />
      <path
         d="m 1599.2102,626.99985 c 0,0 -0.48,12.9 -28.67,9.08 -18.21,-2.47 -8.91,6 0,12.35 a 35,35 0 0 0 19.68,6.48 l 65.9,1.24 c 0,0 4.47,-33 -6.69,-33 -0.52,0.03 -50.22,3.85 -50.22,3.85 z"
         fill="#4a4347"
         id="path180" />
      <path
         d="m 1697.6602,242.28985 c 0,0 4.29,0.32 11,0.51 7.44,0.21 17.87,0.25 28.69,-0.51 20.55,-1.43 15.77,-15.77 15.77,-15.77 l -8.12,-56.39 c 0,0 -20.55,-47.31 -26.28,-33.45 -5.73,13.86 10.51,35.84 10.51,35.84 0,0 7.17,37.28 0,42.53 -4.54,3.33 -12,1.23 -17,-0.76 a 44.51,44.51 0 0 1 -4.82,-2.27 z"
         fill="#a1616a"
         id="path181" />
      <path
         d="m 1481.1702,99.399848 5.26,57.350002 c 0,0 6.21,11.95 13.38,15.77 4.91,2.62 14.51,10.83 20.09,15.75 2.57,2.27 4.29,3.84 4.29,3.84 l 14.34,-22.94 a 27.67,27.67 0 0 0 -3.31,-3.76 36.56,36.56 0 0 0 -18.2,-9.62 c 0,0 -1.19,-3.58 -3.82,-10 -1.84,-4.51 -13.38,-29.63 -13.38,-29.63 0,0 -4.78,-20.070002 -3.82,-30.110002 0.96,-10.04 -14.81,-29.15 -17.2,-26.76 -2.39,2.39 -4.32,30.55 2.37,40.11 z"
         fill="#a1616a"
         id="path182" />
      <path
         d="m 1588.2202,197.84985 c 0,0 51.61,7.17 44.92,-4.3 -1.84,-3.15 -2.92,-7.72 -3.52,-12.68 -1.58,-13.08 0.18,-28.9 0.18,-28.9 l -38.71,6.69 a 52.24,52.24 0 0 1 1.59,22.92 63.37,63.37 0 0 1 -4.46,16.27 z"
         fill="#a1616a"
         id="path183" />
      <circle
         cx="1606.1401"
         cy="146.47986"
         r="24.85"
         fill="#a1616a"
         id="circle183" />
      <path
         d="m 1566.4202,341.74985 a 18,18 0 0 0 7.94,3.8 c 7.65,1.43 32.5,4.3 42.06,-3.35 7.58,-6.06 32.29,-6.12 42.19,-5.88 a 59.79,59.79 0 0 0 -4,-7.5 c 0,0 -70.25,-1 -82.68,6.69 a 17.73,17.73 0 0 0 -5.51,6.24 z"
         opacity="0.1"
         id="path184" />
      <path
         d="m 1519.9002,188.26985 c 2.57,2.27 4.29,3.84 4.29,3.84 l 14.34,-22.94 a 27.67,27.67 0 0 0 -3.31,-3.76 c -6.98,1.34 -13.04,16.42 -15.32,22.86 z"
         opacity="0.1"
         id="path185" />
      <path
         d="m 1697.6602,242.28985 c 0,0 4.29,0.32 11,0.51 10.56,-12.67 4.95,-25.19 3.61,-28.51 a 44.51,44.51 0 0 1 -4.82,-2.27 z"
         opacity="0.1"
         id="path186" />
      <path
         d="m 1588.2202,197.84985 c 0,0 51.61,7.17 44.92,-4.3 -1.84,-3.15 -2.92,-7.72 -3.52,-12.68 a 42.89,42.89 0 0 0 -13.2,-3.09 c -8.86,-2.21 -18.34,1.22 -23.74,3.8 a 63.37,63.37 0 0 1 -4.46,16.27 z"
         opacity="0.1"
         id="path187" />
      <path
         d="m 1616.4202,178.74985 c 0,0 20.55,1 24.37,14.34 0,0 20.07,6.69 30.59,7.17 10.52,0.48 38.71,11.95 39.19,13.86 0.48,1.91 10,18.64 -8.12,33.93 0,0 -20.55,-7.17 -29.63,5.73 -9.08,12.9 -19.12,74.55 -10,81.24 0,0 -36.8,-1.91 -46.36,5.73 -9.56,7.64 -34.41,4.78 -42.06,3.35 -7.65,-1.43 -18.16,-9.56 -18.64,-32 -0.48,-22.44 7.65,-70.73 -4.3,-76.46 -11.95,-5.73 -31.06,-44 -31.06,-44 0,0 7.65,-24.85 16.73,-25.81 0,0 22.46,13.86 32,14.81 a 95.45,95.45 0 0 1 19.12,4.3 c 0,0 14.79,-9.56 28.17,-6.19 z"
         fill="#605d82"
         id="path188" />
      <path
         d="m 1632.6702,516.12985 c 0,0 -4.07,-18 -6.91,-32 0.76,16.79 1.17,30.13 1.17,30.13 l 2.43,104.62 28.14,-4.4 z"
         opacity="0.1"
         id="path189" />
      <path
         d="m 1560.9802,393.74985 c 0,0 -9.56,36.8 0,49.7 9.56,12.9 20.55,65.47 20.55,65.47 0,0 7.17,36.8 12.43,43 5.26,6.2 2.87,79.33 2.87,79.33 l 62.13,-3.35 -28.2,-111.83 c 0,0 -9.08,-40.14 -9.56,-47.31 -0.48,-7.17 -2.87,-69.3 -2.87,-69.3 z"
         fill="#5a5773"
         id="path190" />
      <path
         d="m 1591.0902,135.14985 a 36.42,36.42 0 0 1 -21,-20.4 c 2.64,-1 5.41,1.44 8.22,1.25 3.4,-0.23 5.33,-4 8.24,-5.72 3.79,-2.3 8.77,-1 12.6,1.26 3.83,2.26 7.26,5.29 11.49,6.63 3.62,1.15 7.51,0.92 11.31,1.14 4.82,0.27 14.76,1.13 18.37,4.81 2,2 1.1,4 -0.72,5.68 0.49,2.81 -0.5,5.4 -0.18,8.72 a 14.77,14.77 0 0 1 -1.12,8.47 c -1.37,3.73 -3.3,6.66 -5.17,10.17 -1.24,2.34 -0.53,5.41 -2,7.62 a 7.86,7.86 0 0 1 -3,2.39 31.94,31.94 0 0 1 -23,2.77 c -2.6,-0.68 -5.28,-1.84 -6.67,-4.14 -2.31,-3.83 0,-8.71 -0.24,-13.18 -0.27,-6.32 -5.6,-11.49 -7.13,-17.47 z"
         opacity="0.1"
         id="path191" />
      <path
         d="m 1591.5602,134.66985 a 36.42,36.42 0 0 1 -21,-20.4 c 2.64,-1 5.41,1.44 8.22,1.25 3.4,-0.23 5.33,-4 8.24,-5.72 3.79,-2.3 8.77,-1 12.6,1.26 3.83,2.26 7.26,5.29 11.49,6.63 3.62,1.15 7.51,0.92 11.31,1.14 4.82,0.27 14.76,1.13 18.37,4.81 2,2 1.1,4 -0.72,5.68 0.49,2.81 -0.5,5.4 -0.18,8.72 a 14.77,14.77 0 0 1 -1.12,8.47 c -1.37,3.73 -3.3,6.66 -5.17,10.17 -1.24,2.34 -0.53,5.41 -2,7.62 a 7.86,7.86 0 0 1 -3,2.39 31.94,31.94 0 0 1 -23,2.77 c -2.6,-0.68 -5.28,-1.84 -6.67,-4.14 -2.31,-3.83 0,-8.71 -0.24,-13.18 -0.26,-6.31 -5.59,-11.49 -7.13,-17.47 z"
         fill="#4a4347"
         id="path192" />
      <path
         d="m 1596.5802,167.97985 -3.48,1.23 -0.16,-1.67 c 0,0 -0.18,0.92 3.64,0.44 z"
         opacity="0.1"
         id="path193" />
    </g>
  </g>
</svg>
